<?xml version="1.0" encoding="utf-8"?>
<!-- Generator: Adobe Illustrator 24.3.0, SVG Export Plug-In . SVG Version: 6.00 Build 0)  -->
<svg version="1.1"
	 id="SVGRoot" inkscape:version="0.92.3 (unknown)" sodipodi:docname="man.svg" xmlns:cc="http://creativecommons.org/ns#" xmlns:dc="http://purl.org/dc/elements/1.1/" xmlns:inkscape="http://www.inkscape.org/namespaces/inkscape" xmlns:rdf="http://www.w3.org/1999/02/22-rdf-syntax-ns#" xmlns:sodipodi="http://sodipodi.sourceforge.net/DTD/sodipodi-0.dtd" xmlns:svg="http://www.w3.org/2000/svg"
	 xmlns="http://www.w3.org/2000/svg" xmlns:xlink="http://www.w3.org/1999/xlink" x="0px" y="0px" viewBox="0 0 250 250"
	 style="enable-background:new 0 0 250 250;" xml:space="preserve">
<style type="text/css">
	.st0{fill:#FDF1EC;}
	.st1{fill:#FDEFEB;}
	.st2{fill:#4D604A;}
	.st3{fill:#FCE9E2;}
	.st4{fill:#2B2B2B;}
	.st5{fill:#3C3C2F;}
	.st6{fill:#504B48;}
	.st7{fill:#33352F;}
	.st8{fill:#061106;}
	.st9{fill:#FEFEFE;}
	.st10{fill:#202C1C;}
	.st11{fill:#2D342C;}
	.st12{fill:#182815;}
	.st13{fill:#2A2D1F;}
	.st14{fill:#162714;}
	.st15{fill:#323527;}
	.st16{fill:#2E3022;}
	.st17{fill:#162613;}
	.st18{fill:#101F0F;}
	.st19{fill:#303325;}
	.st20{fill:#211E13;}
	.st21{fill:#585350;}
	.st22{fill:#FDFDFC;}
	.st23{fill:#F2EFED;}
	.st24{fill:#F3EDE9;}
	.st25{fill:#313131;}
	.st26{fill:#616161;}
	.st27{fill:#7B7B7B;}
	.st28{fill:#A49E9D;}
	.st29{fill:#E7E7E7;}
	.st30{fill:#FAFAF9;}
	.st31{fill:#505050;}
	.st32{fill:#E0DBD8;}
	.st33{fill:#CCCCCA;}
	.st34{fill:#E5E5E5;}
	.st35{fill:#545454;}
	.st36{fill:#4B4B4B;}
	.st37{fill:#4D5F4B;}
	.st38{fill:#171312;}
	.st39{fill:#FBDDD8;}
	.st40{fill:#4E4947;}
	.st41{fill:#282828;}
	.st42{fill:#FFFFFF;}
</style>
<sodipodi:namedview  bordercolor="#666666" borderopacity="1.0" id="base" inkscape:current-layer="layer1" inkscape:cx="125" inkscape:cy="125" inkscape:document-units="px" inkscape:pageopacity="0.0" inkscape:pageshadow="2" inkscape:window-height="713" inkscape:window-maximized="1" inkscape:window-width="1299" inkscape:window-x="67" inkscape:window-y="27" inkscape:zoom="2.0149341" pagecolor="#ffffff" showgrid="false">
	</sodipodi:namedview>
<g>
	<path class="st0" d="M62.8,248.1c-2.1-2.5-3.9-5.2-1.9-8.7c0.7-1.3-0.4-2.1-1.3-2.7c-1.8-1.2-3.7-2.1-3.2-4.9
		c0.2-1-0.9-2.1-1.9-2.6c-3.5-1.7-7-3.4-11-3.9c-2.5-0.3-5.2-0.7-7.1-2.9c-1.4-1.6-3.5-2.1-5.5-2.6c-2.2-0.5-4-1.6-5.9-2.7
		c-1.8-1.1-2.1-2.6-0.6-4.2c2.1-2.2,4.6-4.2,7.3-5.7c0.4-0.2,0.9-0.5,1.3-0.4c4.4,1.2,9-0.2,13.4,1c1.7,0.4,3.3-0.6,5-0.5
		c3.7,0.1,7.3,0.1,11,0c1.4,0,2.7-0.3,3.2-1.8c0.5-1.6-0.5-2.5-1.7-3.4c-3.3-2.4-7.3-3.4-11-5c-3.3-1.4-3.4-1.5-1.8-4.5
		c0.8-1.5,0.6-3.1,0.5-4.7c-0.1-2.2,0.5-3.9,2.5-4.9c2.5-1.2,3.4-3.3,3.2-6c-0.2-2.7,0.2-5.2,1.8-7.5c0.8-1.2,0.5-2.1-0.9-2.9
		c-6.2-3.8-12.9-6.3-20-7.9c-4.4-1-6.2-3.9-6.8-7.9c-0.2-1.4-0.2-2.9,1-4.2c3-3.3,5.2-7.4,10.1-8.4c0.9-0.2,1.3-1,1.5-1.9
		c0.7-3.3,1.9-6.5,0.6-10.1c-1-2.8-0.2-5.9,0.1-8.8c0.2-1.7-0.1-2.8-1.5-3.8c-2-1.4-3.6-3-4.4-5.6c-0.7-2.1-2.3-4.2-4.3-5.4
		c-2.1-1.2-3.6-3-5.6-4.2c-1.4-0.9-2.1-2.1-0.5-3.7c1.2-1.1,1.6-2.7,2.1-4.3c0.4-1.5,1.2-2,2.9-1.8c3.8,0.5,4.6-0.6,3.8-4.3
		c-0.5-2-0.7-3.9,1.8-4.9c0.7-0.3,1.5-0.9,1.3-1.7c-0.5-2.7,0.5-5.9-2.7-7.8c-1.6-0.9-2.2-2.6-2.3-4.3c-0.1-1.8-0.8-3.2-1.7-4.7
		c-2.7-4.2-2-6.9,1.8-10.2c3.3-2.9,6.7-4.2,11-3.4c1.6,0.3,2.9-0.3,4.1-1.4c1.6-1.3,3.3-2.6,5.4-2.7c3.5-0.3,6.4-2.1,9.2-3.9
		c2-1.2,3.9-1.8,6.1-1.6c4.9,0.5,9.6-0.5,14.4-1.5c1-0.2,2.1-0.4,3.1-0.2c4.1,0.8,7.6-2,11.6-1.9c0.5,0,1.1-0.5,1.4-0.9
		c2.5-3.2,6.2-3.4,9.7-3.4c3.7,0.1,7.4-1.5,11.2-0.1c0.5,0.2,1.3,0.1,1.6,0.5c2.3,2.8,4.1,6,5.4,9.4c0.1,0.1,0,0.4-0.1,0.5
		c-2.7,2.3-1.7,4.5,0.1,6.8c1.6,2,4,3.2,8.2,3.2c3.4-0.8,7.5-0.5,11.7-0.6c2.1,0,3.7,0.6,4.5,2.6c0.6,1.6,1.8,2.5,3.3,3.2
		c5.1,2.7,10.4,4.7,15.9,6.3c4.3,1.2,7.2,5,11,7.1c1.1,0.6,1.1,2.2,0.6,3.6c-1.3,3.3-0.4,5.9,2.4,8.1c1.8,1.4,2.4,3.5,1.3,5.8
		c-1.1,2.4,0.1,4.3,2.8,4.4c3.1,0.1,5.5,1.5,8.1,2.9c4.4,2.4,6.4,4.4,3.9,9.5c-1.6,3.3-0.1,7.7-3.2,10.8c-0.6,0.6-0.4,1.5,0.3,2
		c3.7,2.5,4.1,7.1,6.8,10.3c1.3,1.6,2.5,3.1,4.6,3.4c3.2,0.5,5,3.2,7.7,4.5c0.9,0.4,0.8,1.7,0.4,2.6c-0.4,1-1.3,1.6-2.5,1.5
		c-5.4-0.5-9.8,2.3-11.8,7.5c-0.3,0.8-0.7,1.6-1.2,2.2c-1.4,1.7-1.4,3.2-0.4,5.2c1.6,3.1,1.1,4.2-2.3,5.7c-1.5,0.7-3.1,1.3-1.8,3.5
		c0.2,0.3,0.1,0.9,0,1c-2.9,1.6-3.1,5.5-6.1,7.1c-1.2,0.6-2.9,0.8-2.8,2.7c0.3,3,2.4,5.8,4.3,6.4c6.6,2.1,13.1,0.5,19.6-0.8
		c2.4-0.5,4.8-0.7,7.2-0.9c2.1-0.2,3.2,0.8,3.2,2.9c0,0.9,0,1.9,0,2.8c-0.2,3.1-1.5,4.4-4.7,4.4c-3.3-0.1-6.3,0.4-8.3,3.6
		c-0.7,1.2-1.4,2.2-0.8,3.6c0.2,0.5,0.1,1.3,0,1.9c-1.2,6.9,3,14.4,9.5,16.8c4.4,1.7,6.5,4.1,6.5,7.1c0,1.5-0.5,2.4-1.9,3.1
		c-2.2,1-3.3,2.9-4.4,5.1c-1.3,2.6-3.7,4.8-5.6,7.1c-0.7,0.8-1.5,1.5-1.8,2.5c-0.9,2.3,0.9,4.8,3.3,4.3c2.6-0.5,4.3,1,6.1,2.3
		c1.3,0.9,2.6,1.8,4.1,2.4c0.9,0.4,1.6,1,1.9,1.6h8.6c-0.2-1.4-1.4-2.7-3.4-3.6c-3.1-1.3-6.4-2.2-9.6-3.2c-4.9-1.5-4.1-4.8-1.7-7.6
		c3.1-3.7,9-4.2,10.4-9.6c0-0.1,0.2-0.1,0.2-0.2c2.2-1.8,3.9-4.2,3.3-7c-0.6-2.6-3.5-2.6-5.7-3.3c-9.1-2.7-12.1-5.1-13.2-14.6
		c-0.2-1.5,0-3,1.4-4c1.8-1.3,3.5-2.8,5.5-4c3.2-1.8,5.5-4.3,6.7-7.9c0.6-1.8,0.3-3.5,0.6-5.3c0.6-2.9-0.8-5.3-3.5-6
		c-5.5-1.4-10.9,1-16.4,0.6c-0.4,0-1,0.4-1.1,0.7c-1.5,3.1-4.3,2.4-6.9,2.6c-1.5,0.1-2.3-0.5-2.5-1.9c-0.2-1.4,1.1-1.6,2-1.9
		c1.2-0.5,3.3,0.6,3.2-1.6c-0.1-1.5,1.2-2.6,0.5-4.3c-0.8-2-0.4-4.2,1-6.1c1.9-2.4,2.7-5.1,0.9-8.1c-1.3-2.1-0.1-3.2,1.9-3.6
		c1.1-0.2,2.4-0.1,3.2-1c2.2-2.3,6-2.6,7.3-6c0.1-0.4,0.7-0.7,1.1-0.9c1.8-1.1,3.2-2.7,4.5-4.2c2.2-2.4,1.7-4.5-1.3-5.3
		c-2.8-0.8-5.3-2.3-8-3.3c-5.3-1.8-7.2-6.8-10.2-10.6c-0.8-1-1.9-2.5-1.6-3.8c1.1-4.9,1.1-10.1,5.1-13.9c1-0.9,1-1.8,0.6-3
		c-1.1-3.6-4.2-5.2-7.1-6.8c-4.6-2.4-10.6-2.8-12.1-9.2c-0.1-0.3-0.5-0.6-0.8-0.8c-3.6-2.6-3.3-5.8-1.6-9.2c1.1-2.3,0.5-4.3-1.1-5.9
		c-3.9-4-7.2-8.9-13.7-9.5c-1.9-0.2-3.7-0.2-5.6-0.4c-1.4-0.2-3.3-0.3-3-2.4c0.4-2.5-0.8-3.4-3-3.2c-2.5,0.2-4.8-0.4-7-1.7
		c-3.2-2-6.7-3.9-10.4-3.7c-5.5,0.3-9.2-1.4-11.4-6.4c-0.1-0.3-0.5-0.6-0.7-0.9c-1-1.5-1.9-2.9-2-4.9c-0.2-3.6-1.1-6.8-4.8-8.6
		c-1.8-0.9-3.7-0.1-5.5-1c-2-1-4.1-0.6-6.3-0.1c-2.9,0.6-5.2,2.7-8.3,3c-6.2,0.6-12.5,1.5-17.9,5.2c-3.7,2.5-8.1,2.9-11.9,2.3
		c-8-1.2-15.2,0.4-22.3,3.5c-1.5,0.7-3.4,0.9-4.7,1.9c-3.9,3.1-8.7,3.6-13.2,4.2c-3.8,0.5-5.2,2.7-6.7,5.3c1.2,0.5,0.9,1.2,0.1,1.9
		c-1.4,1.3-2.7,2.5-4.1,3.8c-0.4,0.8-0.4,1.5-0.3,2.4c0.5,3,2.6,5.7,2.4,8.6c-0.2,3.2,1.1,5,3.1,7c2,2,1.3,5.8-0.9,7.6
		c-2.3,1.9-4.9,3.8-6.1,6.5c-0.8,1.8-1.6,3.2-3.1,4.4c-3,2.4-2.4,6.7,0.9,8.4c3.7,1.9,6.6,4.5,8.6,8.2c1.7,3.2,2.9,6.7,5.6,9.3
		c3.8,3.9,0.7,8.9,2.2,13.2c0.2,0.7-0.9,1.4-1.5,1.9c-0.5,0.4-1.3,0.7-1.5,1.2c-1.6,4.7-5.6,7.4-9,10.4c-4.9,4.3-3.5,9.5,0.6,13.2
		c4.2,3.9,10,4.6,15.1,6.3c3.1,1,5.9,2.3,8.7,3.7c1.9,1,2.1,2.4,1.4,4.3c-0.6,1.4-1.7,2.4-1.9,4c-0.3,2-0.5,4.1-3.2,4.6
		c-1,0.2-1.1,1.5-1.2,2.6c-0.2,1.8,0,4.4-1.1,5.3c-2,1.6-2.2,3.8-3.3,5.7c-1.2,2-0.6,3.7,1.5,4.2c2.6,0.7,4.1,2.9,6.5,3.9
		c0.4,0.2,0.9,0.5,0.7,1.1c-0.1,0.6-0.7,0.6-1.1,0.6c-4.8-0.2-9.5,0.2-14.4-0.4c-7.9-0.8-13.5,1.9-16.2,9.5
		c-0.6,1.6-1.8,3.9,0.2,5.8c4.1,3.9,9,6.5,14.1,8.5c3.8,1.5,8.1,2.3,12.3,2.7c2.2,0.2,4.2,1.1,4.4,3.9c0.1,1.4,1.2,2,2.2,2.8
		c1.3,0.9,2.7,1.8,2.9,3.6c0.2,3.5,0.6,7,0.4,10.4h8.4C63.6,249.2,63.2,248.7,62.8,248.1z"/>
	<path class="st1" d="M30.6,48.5c-2.4,1.1-4.1,2.7-4,5.6l0,0C27.5,51.9,30.3,51.1,30.6,48.5z"/>
	<path class="st1" d="M30.6,48.5c-0.4,2.5-3.2,3.4-4,5.6c1.4-1.3,2.7-2.5,4.1-3.8C31.5,49.7,31.9,49.1,30.6,48.5z"/>
	<path class="st1" d="M70.1,81.1c0,0.1,0,0.1,0,0.2c0,0,0.1,0,0.1,0C70.2,81.2,70.2,81.1,70.1,81.1z"/>
	<path class="st1" d="M98.3,72.2C98.3,72.2,98.3,72.2,98.3,72.2c-0.1,0-0.2,0.1-0.3,0.1c0.1,0.1,0.2,0.2,0.2,0.3
		C98.3,72.4,98.3,72.3,98.3,72.2z"/>
	<path class="st1" d="M101.9,87.1c-0.1,0-0.1,0-0.2,0c0,0,0,0,0,0c0,0.1,0.1,0.2,0.1,0.3C101.8,87.3,101.8,87.2,101.9,87.1z"/>
	<path class="st1" d="M75.3,97.7L75.3,97.7C75.3,97.7,75.3,97.7,75.3,97.7C75.3,97.7,75.3,97.7,75.3,97.7
		C75.3,97.7,75.3,97.7,75.3,97.7C75.3,97.8,75.3,97.8,75.3,97.7C75.3,97.8,75.3,97.8,75.3,97.7C75.3,97.7,75.3,97.7,75.3,97.7z"/>
	<path class="st1" d="M90.8,117.8c0.1,0,0.1,0,0.1,0c0,0,0,0,0,0c0-0.1,0-0.1,0-0.2C90.9,117.8,90.9,117.8,90.8,117.8z"/>
	<path class="st1" d="M75.3,97.7C75.3,97.7,75.3,97.7,75.3,97.7C75.3,97.7,75.4,97.7,75.3,97.7c0-0.1-0.1-0.2-0.1-0.2
		C75.2,97.6,75.2,97.7,75.3,97.7C75.3,97.7,75.3,97.7,75.3,97.7z"/>
	<path class="st1" d="M68.5,96c0.1,0.3,0.2,0.7,0.4,1C68.8,96.7,68.7,96.3,68.5,96z"/>
	<path class="st1" d="M226.9,248c-1.5-0.6-2.8-1.4-4.1-2.4c-1.8-1.3-3.5-2.8-6.1-2.3c-2.4,0.5-4.1-2-3.3-4.3c0.4-1,1.2-1.7,1.8-2.5
		c2-2.3,4.3-4.5,5.6-7.1c1.1-2.2,2.2-4.1,4.4-5.1c1.4-0.7,1.9-1.6,1.9-3.1c0-3-2.1-5.5-6.5-7.1c-6.5-2.5-10.7-10-9.5-16.8
		c0.1-0.6,0.2-1.4,0-1.9c-0.6-1.5,0.1-2.5,0.8-3.6c1.9-3.2,4.9-3.7,8.3-3.6c3.1,0.1,4.5-1.3,4.7-4.4c0.1-0.9,0-1.9,0-2.8
		c0.1-2.2-1.1-3.1-3.2-2.9c-2.4,0.2-4.8,0.5-7.2,0.9c-6.5,1.3-12.9,2.8-19.6,0.8c-1.9-0.6-4-3.4-4.3-6.4c-0.2-1.9,1.6-2.1,2.8-2.7
		c3-1.6,3.2-5.5,6.1-7.1c0.2-0.1,0.2-0.8,0-1c-1.3-2.2,0.3-2.9,1.8-3.5c3.4-1.5,4-2.6,2.3-5.7c-1-1.9-1-3.5,0.4-5.2
		c0.5-0.6,0.9-1.4,1.2-2.2c2-5.1,6.4-7.9,11.8-7.5c1.2,0.1,2-0.4,2.5-1.5c0.4-0.9,0.5-2.1-0.4-2.6c-2.7-1.3-4.5-4-7.7-4.5
		c-2.1-0.3-3.2-1.8-4.6-3.4c-2.7-3.2-3.1-7.9-6.8-10.3c-0.7-0.5-1-1.4-0.3-2c3.1-3.1,1.6-7.5,3.2-10.8c2.5-5.2,0.5-7.1-3.9-9.5
		c-2.7-1.5-5.1-2.8-8.1-2.9c-2.7-0.1-3.9-1.9-2.8-4.4c1-2.3,0.5-4.4-1.3-5.8c-2.9-2.2-3.7-4.8-2.4-8.1c0.6-1.4,0.5-3-0.6-3.6
		c-3.8-2.2-6.7-5.9-11-7.1c-5.5-1.6-10.8-3.6-15.9-6.3c-1.5-0.8-2.7-1.6-3.3-3.2c-0.7-2.1-2.4-2.7-4.5-2.6
		c-4.1,0.1-8.3-0.2-11.7,0.6c-4.1,0-6.5-1.1-8.2-3.2c-1.8-2.3-2.8-4.4-0.1-6.8c0.1-0.1,0.2-0.4,0.1-0.5c-1.3-3.4-3-6.6-5.4-9.4
		c-0.3-0.4-1.1-0.3-1.6-0.5c-3.7-1.4-7.4,0.2-11.2,0.1c-3.5-0.1-7.2,0.2-9.7,3.4c-0.3,0.4-0.9,0.9-1.4,0.9c-4-0.1-7.5,2.7-11.6,1.9
		c-1-0.2-2.1,0-3.1,0.2c-4.8,0.9-9.5,1.9-14.4,1.5c-2.2-0.2-4.1,0.4-6.1,1.6c-2.8,1.7-5.7,3.6-9.2,3.9c-2.2,0.2-3.9,1.4-5.4,2.7
		c-1.2,1.1-2.6,1.7-4.1,1.4c-4.3-0.8-7.7,0.5-11,3.4c-3.8,3.4-4.6,6.1-1.8,10.2c0.9,1.4,1.6,2.9,1.7,4.7c0.1,1.7,0.7,3.4,2.3,4.3
		c3.2,1.9,2.2,5.1,2.7,7.8c0.1,0.7-0.6,1.4-1.3,1.7c-2.6,0.9-2.3,2.8-1.8,4.9c0.9,3.6,0,4.7-3.8,4.3c-1.7-0.2-2.4,0.3-2.9,1.8
		c-0.4,1.5-0.9,3.1-2.1,4.3c-1.6,1.6-1,2.8,0.5,3.7c2,1.3,3.5,3.1,5.6,4.2c2,1.1,3.6,3.2,4.3,5.4c0.8,2.5,2.4,4.2,4.4,5.6
		c1.5,1,1.7,2.1,1.5,3.8c-0.4,2.9-1.1,6-0.1,8.8c1.2,3.6,0.1,6.8-0.6,10.1c-0.2,0.9-0.6,1.7-1.5,1.9c-4.9,1-7.1,5.2-10.1,8.4
		c-1.2,1.3-1.2,2.8-1,4.2c0.6,4,2.5,7,6.8,7.9c7.1,1.6,13.8,4.1,20,7.9c1.4,0.9,1.8,1.7,0.9,2.9c-1.6,2.3-2,4.8-1.8,7.5
		c0.2,2.7-0.6,4.8-3.2,6c-2.1,1-2.6,2.7-2.5,4.9c0.1,1.6,0.3,3.2-0.5,4.7c-1.6,3-1.4,3.1,1.8,4.5c3.7,1.6,7.7,2.5,11,5
		c1.3,0.9,2.2,1.8,1.7,3.4c-0.5,1.5-1.9,1.8-3.2,1.8c-3.7,0-7.3,0.1-11,0c-1.7-0.1-3.3,0.9-5,0.5c-4.4-1.1-9,0.2-13.4-1
		c-0.4-0.1-0.9,0.1-1.3,0.4c-2.7,1.6-5.1,3.5-7.3,5.7c-1.5,1.6-1.2,3.1,0.6,4.2c1.8,1.1,3.7,2.2,5.9,2.7c2,0.5,4.1,1,5.5,2.6
		c1.9,2.2,4.6,2.6,7.1,2.9c4,0.5,7.5,2.2,11,3.9c1,0.5,2.1,1.6,1.9,2.6c-0.5,2.8,1.4,3.8,3.2,4.9c1,0.6,2.1,1.4,1.3,2.7
		c-2,3.5-0.2,6.2,1.9,8.7c0.5,0.6,0.8,1,0.9,1.5h3.6c-0.2-0.8-0.7-1.6-1.6-2.4c-2.5-2.2-2.2-5.1-1.2-7.8c0.4-1,0.4-1.5-0.3-2.2
		c-3.5-3.2-6.1-7.2-8.7-11.2c-0.4-0.6-0.8-1.5-1.5-1.6c-4.7-0.7-8.1-4.1-12.9-5c-3.8-0.7-7.6-2.3-11.6-2.7c-0.7-0.1-1.5-0.4-1.7-1.3
		c-0.2-1.1,0.4-2,1.3-2.3c3.5-1,6.6-3.1,10.4-3.1c7.9,0,15.8,0,23.7,0c3.7,0,6.4-2.7,6.3-6c0-1.4-0.5-2.3-1.7-3
		c-2.6-1.6-4.4-3.6-5.6-6.7c-1-2.4-3.5-4.4-5.2-6.6c-1.1-1.4-1.4-2.4,0.8-2.5c2-0.1,3.2-2.4,5.5-1.5c0.7,0.3,0.5-1,0.2-1.5
		c-0.7-1.2-1.6-2.3-2.3-3.6c-2.1-3.6-0.5-6.8,3.5-7.6c1-0.2,2-0.5,3-0.8c1-0.4,1.8-0.9,1.9-2.2c0-1.2-0.2-2.1-1.4-2.8
		c-2.6-1.6-5.6-2.4-8.5-2.5c-2.5-0.1-4.5-1.1-6.6-2.1c-1.2-0.6-1.3-1.6-1-2.6c0.5-1.4,1.5-0.9,2.3-0.4c1,0.6,1.9,0.2,2.6-0.4
		c1.9-1.5,3.8-2.1,5.9,0.1c-0.7-2.5-0.4-4.6-4-5.7c-5.4-1.7-10.5-1.6-15.9-1.3c-0.6,0-1.4,0.3-1.9,0.1c-0.8-0.3-2.3,0.5-2.3-0.9
		c0-1.2,0.9-2.3,2.2-2.6c0.6-0.1,1.3-0.1,2-0.1c1.9,0,2.7-0.9,2-2.7c-0.9-2.4,0.2-3.5,2.4-4c1.4-0.3,2.9-0.6,4.4-1
		c-0.3-1.2-1.2-0.7-1.9-0.9c-1.6-0.3-2.5-1-2.1-2.9c0.6-3.2,0.5-6.3-0.4-9.5c-0.9-3.2-0.5-6.5,0.7-9.6c1.4-3.7,0.8-5-3-6.3
		c-1.6-0.5-3.4-1.5-4-2.9c-2-4.1-5.9-6.4-8.5-10c-1.5-2,0-3.3,0.3-5c0.3-1.5,1.6-1.3,2.7-1.4c4.4-0.1,5.1-0.7,5.1-5.2
		c0-2.1,0.1-4,2.5-4.7c2.1-0.6,3.9-1.6,6.3,0.5c1.8,1.5,4.7,3.9,8,1.9c1.7-1,2.5,0.4,3,1.8c1.5,4.2,3.4,8.1,6.2,11.6
		c0.8,1,0.6,2.8,0.2,4.3c-0.7,2.3-0.3,4,2.3,4.8c3.3,1,2.7,4.4,3.6,6.8c0.1,0.2,0,0.6,0,0.8c-0.6,5.5,0.1,10.2,5.8,13
		c1.6,0.8,2.4,2.6,3.1,4.3c0.5,1.2,1.1,2.2,2.4,2.6c0,0,0,0,0,0c0,0,0,0,0,0c0-0.5-0.1-1.1,0.1-1.6c0.2-0.7,0.4-1.8,1.5-1.6
		c0.7,0.1,0.9,0.9,1.1,1.5c0.2,1-0.4,1.6-1.3,1.7c-0.5,0.1-0.9,0-1.4,0c0,0,0,0,0,0c0,0,0,0,0,0c0.2,2.6-0.3,4.9-1.7,7.2
		c-1.5,2.4-0.1,5.1,0.7,7.5c0.5,1.7,0.3,2.9-0.7,4.1c-0.6,0.7-1.2,1.1-2.2,0.6c-2.7-1.3-5.6-1-8.4-0.8c-1.7,0.1-2.2,1.1-1.4,2.5
		c1.6,2.6,1.5,5.9,3.5,8.4c1,1.2,0.1,2.4-0.9,3.1c-2,1.4-1.9,2.7,0.2,3.7c2,1,3.7,1.9,2.6,4.6c-0.3,0.7,0.4,1.5,0.9,1.6
		c3.1,0.6,4.9,4.1,8.4,3.8c0-2.1-0.7-4.1-0.4-6.3v0c-0.1-1.1-0.2-2.2-0.2-3.4c0,0,0,0,0,0c-0.7-1.9-0.7-3.8,0-5.6
		c0.1-1.1,0.1-2.2,0.2-3.4c-0.2-6.5,1.3-12.7,4-18.7c1.9-3.1,3.8-6.2,6.8-8.5c-2.8-4-5.3-8.1-7.1-12.7c-0.4-1-1.1-1-1.8-0.9
		c-3.5,0.7-5.5-1.4-7.5-3.8c-3.7-4.5-6.9-9.3-8.8-14.9c-0.8,0-2-0.3-1.7-0.9c0.6-1.7-1-3.2-0.3-4.8c-0.6-2.4-2.5-4.1-3.4-6.3
		c-1.4-3.2-1.1-4.7,1.7-6.2c0.4-1.5,1-3,0.5-4.6C64.9,71,66.8,64,72,57.7c-0.8-1.7-2.3-1.5-3.7-1.1c-2.2,0.7-3-0.3-3.2-2.2
		c-0.1-1-0.6-1.8-0.9-2.6c-0.6-1.6-1.5-2.7-3.5-2.1c-0.5,0.2-1.4,0.2-1.7-0.6c-0.2-0.8,0.3-1.4,0.9-1.5c2.1-0.4,2.4-2.7,4.2-3.7
		c5-2.8,10.2-2.9,15.6-3.3c5.7-0.4,11.4-0.7,16.9-3.1c3.4-1.4,6.9-2.5,10.2-4.3c4.5-2.5,9.6-1.5,14.4-1.4c2.1,0,4.5,4.9,3.5,6.8
		c-0.7,1.3-2,1.8-3.4,1.4c-1.8-0.5-3.7-0.4-5.5-1.2c-1.6-0.7-2.9-0.1-3.2,1.6c-0.3,1.4-0.8,3.4,1.6,3.9c1.9,0.4,3.8,0.8,5.8,1
		c2.2,0.2,2.1,1.1,1.4,2.8c-0.7,1.5-2.7,1.4-3.2,3.2c-0.1,0.3-0.9-0.4-1.2-0.8c-1.7-2.5-3.9-3.5-6.7-2c-1.3,0.7-1.9-1.4-3.1-0.5
		c-0.3,1.1,1.2,0.6,1.4,1.4c4.2,1.4,8.3,2.7,12.3,4.6c2.1-1.4,4.5-1,6.7-1.2c5.8-0.5,11.4,0.6,17,1.6c0.2,0,0.4,0.1,0.6,0.1
		c5.2-1.8,8.5,2.2,12.5,4c4.2,1.9,8.2,4.3,12.7,5.3c1.8,0.4,3.3,1.2,4.6,2.6c0.8,0.9,1.8,1.7,2.8,2.3c2.5,1.3,4.5,2.5,3.3,6.1
		c-0.6,1.9,0.4,4.4,2.4,5.6c2.2,1.3,2.2,3,1.5,5.1c-0.3,1-0.6,2-0.7,3c-0.2,2.9,1.2,4.8,4.1,5.1c4.2,0.4,7.2,3.5,11.1,4.6
		c0.7,0.2,1.1,0.9,1.1,1.6c0,3.3,0.9,6.6-1.9,9.6c-1.5,1.6-2.7,3.6-4.2,5.4c-1.8,2.3-0.7,5.3,2.1,5.4c4.5,0.1,5.9,3.5,6.7,6.5
		c0.9,3.3,2.9,5.4,5.1,7.5c1.1,1,0.9,1.2,0.2,2.3c-2.9,5.3-8.4,6.1-13.3,8c-0.7,0.3-1.7,0.2-1.7,1.1c0,1.2,1,1.1,1.8,1.2
		c2,0.2,3.3,1.2,3.8,3.2c0.1,0.6,0.4,1.3,0.7,1.8c2,3.4,1.5,5-2.2,6.2c-2.5,0.8-4.4,1.4-4,5.1c0.3,2.8-1.6,5.8-5,6.8
		c-2.4,0.7-3.1,1.9-1.4,4c0.8,1,1.1,2.1,0.5,3.6c-0.8,1.8,0.6,3.9-0.7,5.9c-0.3,0.5,1.5,1.4,2.6,1.7c1.9,0.5,3.4,1.3,4.2,3.3
		c0.6,1.4,2,2.3,3.3,2.5c2.2,0.3,3.1,1.6,3.8,3.4c0.5,1.2,1.4,1.9,2.6,2.5c2.3,1.1,2.6,2.8,0.9,4.6c-2.1,2.3-2,2.3,0.9,3.7
		c1.3,0.7,2.6,1.5,4.1,1.8c1.1,0.2,1.6,1.1,2,2.2c1.4,3.5,3.5,6.2,7.4,7.4c3.1,0.9,3.7,3.3,2,6.1c-2.9,4.9-6.2,9.5-10.3,13.5
		c-1.2,1.2-1.7,2.7-2.6,4.1c-1.7-1.7-3.4-3.3-4.1-5.8c-1-3.3-4.3-2.8-6.4-2.4c-3.8,0.8-8,0.8-11.5,3.2c-0.9,0.7-1.8-0.3-2.7-0.3
		c0,2.6,0,5.3,0,7.9c1.6-0.2,3.2,0.3,4.6,0.9c0.5,0.2,1.4,0.7,1.3,0.9c-0.5,3.2,2.4,2.8,4,3.6c1.9,0.9,4.1,1.4,6.3,1.8h1.7
		c1.7-0.4,2.7-2.1,4.1-3.1c1.5-1.1,2.4-1.5,4.2-0.5c2,1.2,4.3,1.7,6.7,1.5c2.1-0.2,3.8,0.3,4.9,2.1h7.8
		C228.5,249,227.8,248.4,226.9,248z M59.8,77.5c0.4,1.2,0.3,2.5-0.9,2.9c-1.1,0.4-1-1-1.2-1.7c-0.3-1.1-1.1-1.8-2.2-1.8
		c-2.1-0.1-4-0.6-6.1-0.6c-3.9,0-9.6-5.5-9.6-9.4c0.1-3.4-1.3-5.9-3.4-8.3c-2.7-3.2-2.5-3.9,1-6c1.7-1,3-3,5.2-2.3
		c1.6,0,3.2-0.3,4,1.2c0.7,1.5-0.5,2.4-1.2,3.5c-1.2,1.7-1.1,3.4,0.6,4.7c2.2,1.8,4.3,3.9,7.4,4.3c1.4,0.2,3.7,0.2,4,1.5
		c0.4,1.8-0.3,3.8-0.6,5.7c-0.1,0.5-0.4,1-0.7,1.5c-0.9,1.5-0.5,2.6,1.2,2.8C58.6,75.7,59.4,76.3,59.8,77.5z M202.6,240.1
		c-0.1,1.8,0.4,4.7-3.3,4c-3.2-0.6-5.9-2.4-8.3-4.5c-1.4-1.3,0.7-4.8,3.2-5.5c1.2-0.4,2.5-0.5,3.8-0.7
		C201.1,232.8,203,235.9,202.6,240.1z"/>
	<path class="st2" d="M85.9,180.9c0.1-0.4,0.1-0.7,0.2-1.1c0.7,6.8,4.8,12.5,5.9,19.1c0.3,1.7,0.2,3.4,0.2,5.1c0,0,0,0,0,0
		c0,0,0,0,0,0c0.1,0.2,0.1,0.3,0.1,0.4c0.7,3,1.1,6.1,0.5,9.2c0,0.9,0.1,1.9,0.1,2.8v0c1.4,0.7,1.1,2.1,1.1,3.3
		c-0.2,8.5,1,16.9,0.6,25.4c-0.1,2.1,0.6,3,2.9,3c18.9-0.1,37.9-0.1,56.8,0c2.1,0,2.3-0.7,2.2-2.7c-0.2-4.2-2-7.9-3.3-11.8
		c0,0,0,0,0,0c-3.9-6.3-5.8-13.3-7.4-20.5c0,0,0.1,0,0.1-0.1v0l-0.1,0.1c-1.8-4.2-3.5-8.5-5.4-12.7c-3.2-7.1-6.4-14.2-11.6-20.6
		c1.6,0.1,2.2,1,2.7,1.8c5.9,9.2,10.5,19.1,14.2,29.4c0.2,0.6,0.2,1.3,0.3,1.9l0,0c0,0,0,0,0,0c1.9,3.4,2.2,7.5,3.8,11
		c1.3,2.7,2.3,5.5,3.5,8.2c2.3,4.1,4.3,8.3,4,13.2c-0.1,1.8,0.8,2.7,2.8,2.6c6.5-0.1,13-0.1,19.5,0c1.8,0,2.6-0.6,2.6-2.4
		c0-11.6,0.4-23.2-0.2-34.7c-0.1-1.3-0.3-2.6-0.5-3.9c-0.4-0.9-0.5-1.9-0.6-2.9c-0.3-1.5-0.7-3.1-0.9-4.6c0,0,0,0,0,0
		c-0.1-2.2-0.6-4.4-1.8-6.1c-2.2-3-2.4-6.3-2.2-9.8v0c0,0,0,0,0,0c-2.8-2.5-2.1-5.7-1.5-8.7c0.4-1.8,1-3.6,0.9-5.4c0,0,0,0,0,0
		c0,0,0,0,0,0l0.1,0.1c-1.3-2.8-2.7-5.6-4-8.5c-1-0.3-1.2-1.4-1.8-2.1c-2.7-3.9-6.4-6.9-10.4-9.3c-4-2.4-8.2-2.5-12.4-1
		c-1,0.3-2,0.7-3,0.6c-3.1,2.6-7,4-9.7,7.1c2.4-3.4,5.4-6.1,9.6-7.2c0,0,0,0,0,0c0,0,0,0,0,0l0,0c1.5-1.4,3.5-1.6,5.4-2.1
		c1.4-0.4,1.4-0.7,0.7-1.8c-3.7-5.7-8.1-10.9-12.4-16.2c-2.2-2.7-4.1-5.7-7.2-7.6c-11.3,2.7-18.4,11-25.7,19c-1.4,1.5-2.8,3-4.3,4.4
		c-0.5,0.5-1,1.3-1.8,0.2c-2.8,1.4-3.3,1-3.9-2.7c-2.1-1,0.4-2.8-0.9-4.1c-1.1,0.8-1.7,2.1-2.6,3.2c-0.5,0.7-0.8,1.9-2.1,0.9
		c-2.6,6-4.1,12.1-4,18.7c0.9,4.1,0.8,8.2,0,12.3v0c-0.3,2.1,0.4,4.2,0.4,6.3C85.5,180.1,85.7,180.5,85.9,180.9L85.9,180.9z
		 M129.5,164.4c-0.7,4.2-1.6,8.4-0.6,13.4C127.2,174.6,127.6,168.3,129.5,164.4z"/>
	<polygon class="st2" points="175.4,169.5 175.4,169.5 175.4,169.5 	"/>
	<path class="st2" d="M143.7,149.1C143.7,149.1,143.7,149.2,143.7,149.1L143.7,149.1C143.7,149.1,143.7,149.1,143.7,149.1z"/>
	<path class="st2" d="M145.9,213L145.9,213C146,212.9,146,212.9,145.9,213L145.9,213z"/>
	<path class="st2" d="M143.7,149.1L143.7,149.1C143.7,149.1,143.7,149.1,143.7,149.1C143.7,149.1,143.7,149.1,143.7,149.1
		C143.7,149.1,143.7,149.1,143.7,149.1z"/>
	<path class="st3" d="M132.1,69.7c0.4,3,0.4,6-0.2,8.9c-2,9.1-4.8,17.8-11.7,24.4c-1.2,1.2-0.6,2.4-0.8,3.6
		c1.8,4.7,4.2,9.2,6.8,13.5c0.2,0.3,0.4,0.7,0.6,1v0c1,0.8,2.2-1,3.2-0.2c0.2,0,0.4,0,0.6,0.1c0.2,0,0.4,0.1,0.5,0.1
		c2.4,0,4.4,1.3,6.4,2.4c14.5,8.2,24.8,20.3,32.8,34.5c0.5,0.8,1,1.6,1.4,2.5c0,0.1,0.1,0.2,0.1,0.3c1.6,2.3,3.3,4.5,3.5,7.4
		c0.1,0.3,0.2,0.6,0.3,0.9c0.1,0.3,0.2,0.5,0.2,0.8c0,0.3,0.1,0.6,0,0.9c0.2,1.4-0.3,2.8-0.7,4.1c-0.8,2.8-0.7,5.3,0.7,7.9
		c0.2,0.5,0.7,1,0.6,1.5c-0.3,4.3,2.2,7.7,3.5,11.5c0.2,0.6,0.3,1.2,0.4,1.8c0.1,0.7,0.2,1.3,0.3,2c0,0.2,0.1,0.3,0.1,0.5
		c0.1,0.3,0.1,0.5,0.1,0.8c0.3,1.6,0.6,3.2,0.8,4.8c2.5,9.1,0.7,18.4,1.3,27.6c0,0.4,0.1,0.7,0.1,1.1c0.9-0.1,1.7,1,2.7,0.3
		c3.4-2.4,7.6-2.4,11.5-3.2c2.1-0.4,5.4-0.9,6.4,2.4c0.8,2.4,2.4,4.1,4.1,5.8c0.9-1.4,1.5-2.9,2.6-4.1c4.1-4,7.4-8.6,10.3-13.5
		c1.7-2.8,1.1-5.2-2-6.1c-3.9-1.1-6-3.9-7.4-7.4c-0.4-1-0.9-2-2-2.2c-1.5-0.3-2.8-1.1-4.1-1.8c-2.9-1.5-2.9-1.5-0.9-3.7
		c1.6-1.8,1.3-3.5-0.9-4.6c-1.2-0.6-2.1-1.3-2.6-2.5c-0.7-1.7-1.6-3-3.8-3.4c-1.3-0.2-2.7-1.1-3.3-2.5c-0.8-2-2.3-2.8-4.2-3.3
		c-1.1-0.3-2.9-1.2-2.6-1.7c1.3-2,0-4.1,0.7-5.9c0.7-1.5,0.3-2.6-0.5-3.6c-1.7-2.2-1-3.3,1.4-4c3.3-1,5.2-4,5-6.8
		c-0.4-3.7,1.5-4.2,4-5.1c3.7-1.2,4.2-2.8,2.2-6.2c-0.3-0.6-0.6-1.2-0.7-1.8c-0.5-2-1.8-3-3.8-3.2c-0.8-0.1-1.9,0-1.8-1.2
		c0-1,1-0.8,1.7-1.1c4.9-1.9,10.4-2.8,13.3-8c0.6-1.1,0.8-1.3-0.2-2.3c-2.2-2.1-4.2-4.2-5.1-7.5c-0.8-3-2.2-6.4-6.7-6.5
		c-2.8-0.1-3.9-3.1-2.1-5.4c1.4-1.8,2.7-3.8,4.2-5.4c2.8-3,1.9-6.3,1.9-9.6c0-0.6-0.4-1.4-1.1-1.6c-3.9-1.1-6.9-4.2-11.1-4.6
		c-2.9-0.3-4.3-2.2-4.1-5.1c0.1-1,0.4-2,0.7-3c0.7-2.1,0.7-3.7-1.5-5.1c-2-1.2-3.1-3.7-2.4-5.6c1.2-3.6-0.7-4.8-3.3-6.1
		c-1.1-0.6-2-1.4-2.8-2.3c-1.3-1.4-2.8-2.2-4.6-2.6c-4.6-1-8.5-3.4-12.7-5.3c-4-1.8-7.4-5.8-12.5-4c-0.2,0.1-0.4-0.1-0.6-0.1
		c-5.6-0.9-11.2-2.1-17-1.6c-2.3,0.2-4.7-0.2-6.7,1.2C126.8,57.5,131.1,62.5,132.1,69.7z"/>
	<path class="st3" d="M181.1,203.4c0.3,0.8,0.5,1.6,0.7,2.3c-0.2-1.6-0.5-3.2-0.8-4.8C181.1,201.8,180.8,202.6,181.1,203.4z"/>
	<path class="st3" d="M175.9,170c0-0.3-0.1-0.6-0.2-0.8c-0.1-0.3-0.2-0.6-0.3-0.9c0,0.4,0.1,0.7,0,1.1c0,0,0,0,0,0l0,0l0,0l-0.1-0.1
		c0,0,0,0,0,0c0.3,0.5,0.5,1,0.6,1.5C176,170.6,175.9,170.3,175.9,170z"/>
	<path class="st3" d="M181.4,206.9c-0.2-1-0.4-1.9-0.6-2.9C180.8,205,181,206,181.4,206.9z"/>
	<path class="st3" d="M180.5,199.4c0.2,0.2,0.4,0.5,0.5,0.7c0-0.2-0.1-0.3-0.1-0.5c-0.1-0.7-0.2-1.3-0.3-2
		C180.5,198.2,180.5,198.8,180.5,199.4z"/>
	<path class="st3" d="M171.8,161c0-0.1-0.1-0.2-0.1-0.3c-0.4-0.9-0.9-1.7-1.4-2.5c0.4,0.7,0.8,1.4,1.2,2.1
		C171.5,160.6,171.7,160.8,171.8,161z"/>
	<path class="st3" d="M131,121.3c-0.2-0.1-0.3-0.1-0.5-0.1c-0.2,0-0.4-0.1-0.6-0.1c0.1,0.1,0.2,0.1,0.2,0.3
		C130.4,121.3,130.7,121.3,131,121.3z"/>
	<polygon class="st3" points="84.3,133.3 84.3,133.3 84.3,133.3 	"/>
	<path class="st3" d="M216.1,247.5c-2.4,0.2-4.7-0.3-6.7-1.5c-1.8-1.1-2.7-0.7-4.2,0.5c-1.3,1-2.4,2.7-4.1,3.1H221
		C219.9,247.8,218.2,247.3,216.1,247.5z"/>
	<path class="st3" d="M193.2,247.8c-1.5-0.8-4.5-0.4-4-3.6c0-0.2-0.8-0.7-1.3-0.9c-1.5-0.7-3-1.1-4.6-0.9c0,0.7-0.1,1.3-0.1,2
		c0,4.7,0,4.7-4.9,4.7c-27.2,0-54.3-0.1-81.5,0.1c-2.7,0-3-0.8-3-3.2c0-0.2,0-0.4,0-0.6c0-0.5,0-1.2,0-1.9c0-0.9,0-1.9,0-2.8
		c0-0.2,0-0.3,0-0.5c-0.1-5.3-0.5-10.5-0.7-15.7c-0.1-2.2-0.2-4.4-0.3-6.5c0-0.1,0-0.2,0-0.3c-0.1-0.2-0.2-0.5-0.3-0.7
		c-0.4-1-0.4-2-0.3-3c0.4-3.2-0.3-6.4-0.5-9.6c0.1-1.6-0.1-3.1-0.3-4.5c-0.9-4.7-3.3-9.1-4.5-13.8c-0.3-1.3-0.6-2.7-0.8-4.1
		c-0.1-0.3-0.3-0.6-0.5-0.9c-0.5-0.3-0.6-0.7-0.3-1.2c-3.5,0.3-5.2-3.2-8.4-3.8c-0.6-0.1-1.2-0.9-0.9-1.6c1.2-2.7-0.6-3.7-2.6-4.6
		c-2.1-1-2.3-2.3-0.2-3.7c1-0.7,1.9-1.9,0.9-3.1c-2-2.5-1.9-5.8-3.5-8.4c-0.9-1.4-0.3-2.4,1.4-2.5c2.9-0.2,5.7-0.5,8.4,0.8
		c1,0.5,1.6,0.1,2.2-0.6c1-1.2,1.2-2.5,0.7-4.1c-0.8-2.4-2.2-5.1-0.7-7.5c1.4-2.3,1.9-4.6,1.7-7.2c-1.3-0.4-1.9-1.4-2.4-2.6
		c-0.7-1.7-1.5-3.5-3.1-4.3c-5.7-2.7-6.4-7.5-5.8-13c0-0.3,0.1-0.6,0-0.8c-0.9-2.4-0.3-5.8-3.6-6.8c-2.7-0.8-3-2.5-2.3-4.8
		c0.4-1.4,0.6-3.3-0.2-4.3c-2.9-3.5-4.7-7.4-6.2-11.6c-0.5-1.5-1.3-2.9-3-1.8c-3.4,2-6.3-0.4-8-1.9c-2.5-2.1-4.2-1.1-6.3-0.5
		c-2.4,0.7-2.5,2.6-2.5,4.7c-0.1,4.5-0.7,5.1-5.1,5.2c-1.1,0-2.4-0.1-2.7,1.4c-0.3,1.6-1.8,3-0.3,5c2.6,3.5,6.5,5.9,8.5,10
		c0.7,1.4,2.4,2.3,4,2.9c3.7,1.3,4.4,2.6,3,6.3c-1.2,3.1-1.7,6.4-0.7,9.6c0.9,3.2,1,6.3,0.4,9.5c-0.3,1.9,0.5,2.6,2.1,2.9
		c0.6,0.1,1.6-0.4,1.9,0.9c-1.5,0.3-2.9,0.6-4.4,1c-2.2,0.5-3.3,1.6-2.4,4c0.7,1.8-0.1,2.7-2,2.7c-0.7,0-1.3-0.1-2,0.1
		c-1.4,0.3-2.3,1.4-2.2,2.6c0,1.3,1.5,0.6,2.3,0.9c0.6,0.2,1.3-0.1,1.9-0.1c5.4-0.3,10.5-0.3,15.9,1.3c3.6,1.1,3.4,3.3,4,5.7
		c-2.1-2.2-4-1.6-5.9-0.1c-0.7,0.6-1.6,1-2.6,0.4c-0.8-0.5-1.8-0.9-2.3,0.4c-0.3,1-0.2,2,1,2.6c2.1,1.1,4,2,6.6,2.1
		c2.9,0.1,5.9,0.9,8.5,2.5c1.2,0.7,1.4,1.6,1.4,2.8c0,1.3-0.8,1.8-1.9,2.2c-1,0.3-2,0.6-3,0.8c-4,0.8-5.6,4-3.5,7.6
		c0.7,1.2,1.6,2.3,2.3,3.6c0.3,0.5,0.5,1.8-0.2,1.5c-2.3-0.9-3.6,1.4-5.5,1.5c-2.2,0.1-1.9,1.1-0.8,2.5c1.7,2.2,4.2,4.2,5.2,6.6
		c1.2,3,3,5.1,5.6,6.7c1.2,0.7,1.7,1.6,1.7,3c0.1,3.4-2.6,6-6.3,6c-7.9,0-15.8,0-23.7,0c-3.8,0-6.9,2.1-10.4,3.1
		c-0.9,0.2-1.5,1.2-1.3,2.3c0.2,0.9,0.9,1.3,1.7,1.3c4,0.3,7.8,1.9,11.6,2.7c4.7,0.9,8.2,4.3,12.9,5c0.7,0.1,1.1,0.9,1.5,1.6
		c2.5,4,5.1,7.9,8.7,11.2c0.7,0.7,0.7,1.2,0.3,2.2c-1,2.7-1.2,5.6,1.2,7.8c0.9,0.8,1.4,1.6,1.6,2.4h132.2
		C197.3,249.2,195.1,248.7,193.2,247.8z"/>
	<path class="st3" d="M93.7,243.4c0,0.7,0,1.3,0,1.9c0-1.6,0-3.1,0-4.7C93.8,241.5,93.8,242.4,93.7,243.4z"/>
	<path class="st3" d="M92.9,216.4L92.9,216.4c0-0.9-0.1-1.9-0.1-2.8c-0.3-3-0.7-6-1-9h0c0.1-1.7-0.1-3.3-0.4-4.9
		c0.3,1.5,0.4,3,0.3,4.5c0.2,3.2,0.8,6.4,0.5,9.6c-0.2,1-0.1,2,0.3,3c0.1,0.2,0.3,0.4,0.3,0.7C92.8,217.1,92.9,216.7,92.9,216.4
		L92.9,216.4z"/>
	<path class="st3" d="M85.6,180.9c0.2,0.3,0.3,0.6,0.5,0.9c-0.1-0.3-0.1-0.6-0.2-0.9v0v0c-0.2-0.4-0.4-0.8-0.6-1.3
		C85.1,180.1,85.2,180.5,85.6,180.9z"/>
	<path class="st3" d="M93.8,240.1c-0.1-5.3-0.4-10.5-0.7-15.7C93.2,229.6,93.7,234.8,93.8,240.1z"/>
	<path class="st4" d="M67.4,89.2c0.8-0.4,0.2-1.2,0.6-1.7c0.3-1.3-1-3.1,1-4c0-0.2,0-0.4,0-0.6c-0.4-0.1-1.4,0.1-0.8-0.8
		c0.4-0.5,1.2-0.6,1.9-0.9c0-0.1,0-0.1,0-0.2c-0.6-0.9-1.7,0.6-2-0.4c-0.3-0.9,0.1-2,0.9-2.5c2-1.5,2.7-3.6,3.2-5.8
		c0.4-2,1.4-3.1,3.1-4c4.9-2.8,10.3-4.5,15.8-5.6c1.8-0.4,2.9,0,3.2,2c0.5,2.7,1.5,5.1,3.8,7.5c0.1,0,0.2,0,0.3-0.1c0,0,0,0,0,0
		c0.1-1.2,0.1-2.1,0.2-3.4c1.4,2.7,1,5.1,1,7.4c0,0.2,0,0.5,0,0.7c0.8,3.2,0.9,6.5,2.1,10.2c0,0,0,0,0,0c0.1,0,0.1,0,0.2,0
		c1.7-2.6,2.3-5.6,5.1-6.9c-0.8-2-0.3-2.6,2.1-2.3c2.1-1.7,4.2-2.5,6.5-0.5c2.3,2,2.8,4.8,1.2,7.5c-0.7,1.3-1.7,2.4-2.6,3.6
		c0,0.4,0,0.9,0,1.3c0,2.9-0.3,5.8,0,8.7c0.3,2.6-0.2,6.1,4.1,6.4c0.3,0,0.4,0.2,0.4,0.4c0.1-1.3,0.8-2.3,1.7-3.4
		c7-8.4,10.8-18.1,11.1-28.9c0.2-7-2.7-12.8-8.6-16.9c-0.9-0.6-2-1.1-2.1-2.5c-4-1.9-8.1-3.2-12.3-4.6c-4.5-0.5-8.9-1.4-13.4-1.2
		c-9,0.4-16.9,3.2-23.2,9.9c-5.2,6.3-7,13.3-4.7,21.2c0.5,1.6-0.1,3.1-0.5,4.6c0,0.3,0,0.5,0.1,0.8C67.9,85.8,67.1,87.6,67.4,89.2z"
		/>
	<path class="st4" d="M123,56.2c5.8,4.2,8.8,9.9,8.6,16.9c-0.3,10.8-4.1,20.6-11.1,28.9c-0.9,1.1-1.7,2.1-1.7,3.4
		c0.1,0.4,0,0.9,0.2,1.3c0.1-0.1,0.3-0.1,0.4,0l0,0c0.2-1.2-0.4-2.4,0.8-3.6c6.9-6.7,9.7-15.4,11.7-24.4c0.7-3,0.7-5.9,0.2-8.9
		c-1.1-7.2-5.3-12.2-11.2-16C120.9,55.1,122.1,55.5,123,56.2z"/>
	<path class="st3" d="M75,53.9c5.8-4.2,12.2-6.5,19.3-6.7c4.8-0.1,9.7-0.3,14.3,1.9c-0.2-0.7-1.6-0.2-1.4-1.4
		c1.2-0.9,1.8,1.2,3.1,0.5c2.8-1.5,5-0.5,6.7,2c0.3,0.5,1.1,1.1,1.2,0.8c0.4-1.8,2.5-1.6,3.2-3.2c0.8-1.7,0.8-2.6-1.4-2.8
		c-1.9-0.2-3.9-0.6-5.8-1c-2.4-0.5-1.9-2.4-1.6-3.9c0.3-1.6,1.6-2.3,3.2-1.6c1.7,0.8,3.7,0.7,5.5,1.2c1.4,0.4,2.7-0.1,3.4-1.4
		c1-1.9-1.4-6.8-3.5-6.8c-4.8-0.1-9.9-1.1-14.4,1.4c-3.3,1.8-6.8,2.9-10.2,4.3c-5.5,2.3-11.2,2.6-16.9,3.1
		c-5.4,0.4-10.6,0.5-15.6,3.3c-1.8,1-2.1,3.3-4.2,3.7c-0.7,0.1-1.2,0.7-0.9,1.5c0.3,0.9,1.1,0.8,1.7,0.6c2-0.6,2.9,0.5,3.5,2.1
		c0.3,0.9,0.8,1.6,0.9,2.6c0.2,1.9,1,2.9,3.2,2.2c1.3-0.4,2.8-0.6,3.7,1.1C72.3,55.9,73.7,54.9,75,53.9z"/>
	<path class="st3" d="M95.2,47.9c4.6-0.2,9,0.7,13.4,1.2c-4.5-2.2-9.4-2-14.3-1.9c-7.1,0.2-13.6,2.5-19.3,6.7
		c-1.4,1-2.7,2.1-3.1,3.9C78.3,51,86.2,48.3,95.2,47.9z"/>
	<path class="st3" d="M57.3,75.6c-1.7-0.2-2.2-1.3-1.2-2.8c0.3-0.5,0.6-1,0.7-1.5c0.3-1.9,1-4,0.6-5.7c-0.3-1.3-2.6-1.3-4-1.5
		c-3.1-0.5-5.1-2.6-7.4-4.3c-1.7-1.3-1.8-3-0.6-4.7c0.7-1.1,2-2,1.2-3.5c-0.8-1.6-2.4-1.2-4-1.2c-2.2-0.8-3.5,1.3-5.2,2.3
		c-3.6,2.1-3.7,2.7-1,6c2,2.5,3.4,4.9,3.4,8.3c-0.1,3.8,5.7,9.3,9.6,9.4c2.1,0,4.1,0.5,6.1,0.6c1.2,0.1,1.9,0.7,2.2,1.8
		c0.2,0.8,0.1,2.1,1.2,1.7c1.2-0.4,1.3-1.7,0.9-2.9C59.4,76.3,58.6,75.7,57.3,75.6z"/>
	<path class="st5" d="M156.9,245c0,0.1,0,0.2,0,0.3c0,0,0-0.1,0-0.1C156.9,245.2,156.9,245.1,156.9,245z"/>
	<path class="st5" d="M157,246.2c0,1.2-0.3,2-1.1,2.4c0.3,0,0.7,0,1,0c0.5,0,0.9,0,1.4,0C157.4,248.2,157.1,247.6,157,246.2z"/>
	<path class="st5" d="M182.7,212.1c0-1.2-0.1-2.3-0.4-3.3c0.2,1.8,0.3,3.5,0.4,5.3C182.7,213.4,182.7,212.7,182.7,212.1z"/>
	<path class="st5" d="M182.7,233.6c0,0.3,0,0.7,0,1c-0.1,2.8-0.1,5.7,0.1,8.5c0.1-0.3,0.2-0.5,0.4-0.7c0-2.6,0-5.3,0-7.9h0
		C183,234.2,182.8,233.9,182.7,233.6z"/>
	<path class="st5" d="M180.8,248.5c1-0.1,1.4-0.4,1.6-1.2C182.1,247.9,181.6,248.3,180.8,248.5z"/>
	<path class="st5" d="M153.3,232.8c0,0.1,0,0.2,0,0.3c0.2,0.3,0.3,0.6,0.5,0.9c0.2,0.5,0.5,0.9,0.7,1.4
		C154.1,234.6,153.7,233.8,153.3,232.8C153.3,232.9,153.3,232.9,153.3,232.8z"/>
	<path class="st5" d="M156.9,244.4c-0.1-1.5-0.4-2.9-0.7-4.2C156.5,241.6,156.7,243,156.9,244.4z"/>
	<path class="st5" d="M153.3,232.9c0.4,0.9,0.7,1.7,1.1,2.5c0.7,1.5,1.3,3.1,1.7,4.7c0.4,1.4,0.6,2.8,0.7,4.2c0,0.2,0,0.4,0,0.6
		c0,0.1,0,0.1,0,0.2c0,0,0,0.1,0,0.1c0,0.3,0,0.5,0,0.8c0,0,0,0,0,0c0.1,1.4,0.5,2,1.3,2.4c6.8,0,13.5,0,20.3,0.1c0.9,0,1.6,0,2.2,0
		c0.8-0.2,1.3-0.6,1.6-1.2c0.1-0.6,0.2-1.4,0.2-2.6c0-0.6,0-1.1,0.1-1.7c-0.2-2.8-0.2-5.7-0.1-8.5c0-0.3,0-0.7,0-1
		c-0.2-0.8-0.1-1.6-0.1-2.4c0-5.7,0-11.5,0-17.2c-0.1-1.8-0.3-3.5-0.4-5.3c-0.1-0.3-0.3-0.7-0.5-1c-0.2-0.3-0.3-0.5-0.4-0.8
		c0.2,1.3,0.4,2.6,0.5,3.9c0.6,11.5,0.2,23.1,0.2,34.7c0,1.9-0.8,2.5-2.6,2.4c-6.5-0.1-13-0.1-19.5,0c-2,0-2.9-0.8-2.8-2.6
		c0.3-4.9-1.7-9.1-4-13.2C153.3,232.4,153.3,232.6,153.3,232.9C153.3,232.9,153.3,232.9,153.3,232.9z"/>
	<path class="st5" d="M93.6,223.6c-0.1,7.3,0.9,14.6,0.6,21.9c-0.1,2.2,0.9,3.1,3.2,3.1c19.5-0.1,39,0,58.5-0.1
		c0.8-0.4,1.1-1.1,1.1-2.4c0-0.2,0-0.5,0-0.8c0-0.1,0-0.2,0-0.3c0-0.2,0-0.4,0-0.6c-0.1-1.4-0.4-2.9-0.7-4.2c-0.5-1.6-1-3.2-1.7-4.7
		c-0.2-0.5-0.5-0.9-0.7-1.4c-0.2-0.3-0.3-0.6-0.5-0.9c0,0.1,0,0.3,0,0.4c0,0,0,0,0,0c0,0,0,0,0,0c1.2,3.9,3.1,7.6,3.3,11.8
		c0.1,2-0.1,2.7-2.2,2.7c-18.9-0.1-37.9-0.1-56.8,0c-2.3,0-3-1-2.9-3c0.4-8.5-0.8-16.9-0.6-25.4c0-1.2,0.4-2.5-1.1-3.3
		C93.7,218.7,93.6,221.2,93.6,223.6z"/>
	<path class="st5" d="M156.1,240.2c-0.4-1.6-1-3.2-1.7-4.7C155.1,237,155.7,238.6,156.1,240.2z"/>
	<path class="st5" d="M156.9,245.4c0,0.3,0,0.6,0,0.8c0,0,0,0,0,0C157,245.9,156.9,245.6,156.9,245.4z"/>
	<path class="st5" d="M180.4,199.4c-0.2,0-0.3,0-0.5,0c0.2,1.5,0.6,3.1,0.9,4.6c-0.1-1.4,0-2.9-0.4-4.3
		C180.4,199.6,180.4,199.5,180.4,199.4z"/>
	<path class="st5" d="M181.8,205.7c0.1,1,0.3,2,0.4,3c0.4,1.1,0.5,2.2,0.4,3.3c0,0.7,0,1.3,0,2c0.4,6.5,0.3,13,0.1,19.6
		c0.1,0.3,0.2,0.6,0.5,0.9h0c0-0.4-0.1-0.7-0.1-1.1C182.5,224.1,184.4,214.8,181.8,205.7z"/>
	<path class="st5" d="M180.9,200.1c0.1,0.3,0.1,0.6,0.1,0.8C181.1,200.7,181,200.4,180.9,200.1z"/>
	<path class="st5" d="M182.2,208.7c-0.1-1-0.2-2-0.4-3c-0.2-0.8-0.5-1.6-0.7-2.3c-0.3-0.8,0-1.6,0-2.4c-0.1-0.3-0.1-0.6-0.1-0.8
		c-0.1-0.2-0.2-0.5-0.5-0.7c0,0-0.1,0-0.1,0c0,0.1,0,0.2,0.1,0.4c0.3,1.4,0.3,2.8,0.4,4.3c0.2,1,0.4,1.9,0.6,2.9
		c0.1,0.3,0.2,0.5,0.4,0.8C181.9,208,182.1,208.4,182.2,208.7z"/>
	<path class="st5" d="M182.7,233.6c0.3-6.5,0.3-13.1-0.1-19.6c0,5.7,0,11.5,0,17.2C182.7,232,182.5,232.8,182.7,233.6z"/>
	<path class="st5" d="M182.8,243.9c0.1,1.6,0,2.7-0.4,3.4c-0.2,0.8-0.6,1.1-1.6,1.2c-0.7,0.2-1.5,0.3-2.6,0.3c-5.7,0-11.5,0-17.2,0
		c-1.2,0-2.1-0.1-2.7-0.3c-0.5,0-0.9,0-1.4,0c-0.3,0-0.7,0-1,0c-0.3,0.1-0.6,0.2-1,0.2c-0.8,0.1-1.5,0.1-2.3,0.1
		c-17.9,0-35.7,0-53.6,0c-4,0-5.1-0.5-5.3-3.5c0,0.2,0,0.4,0,0.6c-0.1,2.3,0.3,3.2,3,3.2c27.2-0.1,54.3-0.1,81.5-0.1
		c4.8,0,4.8,0,4.9-4.7c0-0.7,0.1-1.3,0.1-2c-0.2,0.2-0.4,0.5-0.4,0.7C182.8,243.4,182.8,243.6,182.8,243.9z"/>
	<path class="st5" d="M93.1,219.5c0-0.7-0.1-1.4-0.3-2c0,0.1,0,0.2,0,0.3c0.1,2.2,0.2,4.4,0.3,6.5C93.1,222.7,93.1,221.1,93.1,219.5
		z"/>
	<path class="st5" d="M99,248.8c17.9,0,35.7,0,53.6,0c0.8,0,1.5,0,2.3-0.1c0.4,0,0.8-0.1,1-0.2c-19.5,0.1-39,0-58.5,0.1
		c-2.3,0-3.3-0.8-3.2-3.1c0.3-7.3-0.7-14.6-0.6-21.9c0-2.4,0.1-4.9-0.7-7.2l0,0c0,0.4,0,0.7-0.1,1.1c0.3,0.6,0.3,1.3,0.3,2
		c-0.1,1.6-0.1,3.2,0,4.9c0.3,5.2,0.6,10.5,0.7,15.7c0,0.2,0,0.3,0,0.5c0,1.6,0,3.1,0,4.7C93.9,248.3,95.1,248.8,99,248.8z"/>
	<path class="st5" d="M182.4,247.3c0.4-0.7,0.5-1.8,0.4-3.4c0-0.3,0-0.5,0-0.8c-0.2,0.5-0.1,1.1-0.1,1.7
		C182.6,246,182.6,246.8,182.4,247.3z"/>
	<path class="st5" d="M178.6,248.6c-6.8,0-13.5-0.1-20.3-0.1c0.6,0.2,1.5,0.3,2.7,0.3c5.7,0,11.5,0,17.2,0c1.1,0,1.9-0.1,2.6-0.3
		C180.3,248.6,179.5,248.6,178.6,248.6z"/>
	<path class="st6" d="M91.5,124.9L91.5,124.9c-0.5-1-1-1.9-1.6-2.9c-0.9-1.6-1-2.9,1.2-3.5c0-0.2,0-0.4-0.1-0.6c0,0,0,0,0,0
		c-0.1,0-0.1,0-0.1,0c-1.1,0.4-2.1,0.9-3.2,1.3c-2.3,0.9-4.1,0.4-5.8-1.4c-4.6-4.9-8.1-10.5-10.6-16.8c-0.5-1.2-0.7-1.8,1.1-1.7
		c1,0,2.4,0,3-1.4c0,0,0-0.1,0-0.1c-0.4,0.1-0.9,0.1-1.3,0.2c-1.1,0.3-2.2,0.9-3.1-0.1c-0.4-0.5,0-1.1,0.4-1.5c1-1,2.2-1.4,3.6-1
		c1.4,0.4,0.2,1.3,0.3,2c0.1,0.1,0.1,0.2,0.2,0.2c1.1-0.4,1.3-1.2,0.9-2.1c-0.5-1.1-1.7-1.2-2.7-1.1c-1.4,0.1-2.7,0.8-3.7,1.9
		c-0.7-1.3-0.9-1.9,0.8-2.9c2.8-1.6,5.5-3,8.7-3.6c2.6-0.5,3.5-2.6,3.2-5.2c-0.1-1.1-0.2-2.3-0.6-3.3c-1.2-2.6-0.2-3.7,2.3-4
		c0-0.2,0-0.3,0-0.5c-2.1,0-4.4,1.4-5.9,0.8c-2.5-1-3.6,0.5-5.2,1.3c-0.3,0.2-0.8,0.5-0.8,0.7c0.1,2.1-1.6,2.4-2.9,3
		c-0.1,0.2-0.1,0.3-0.2,0.5c0,0.1,0,0.2-0.1,0.2c1.6-0.6,2.4,0,2.5,1.9c0.1,1.3,0.4,2.6,1,3.7c0.6,1.2,0.5,1.9-0.5,2.6
		c-0.9,0.7-1.9,1.6-3,1.3c-1.5-0.4-0.6-2.1-1-3.2C67.9,90,68,90.6,67.8,91c0,0.4,0,0.7,0,1.1c-2.5-2.8-2.8-5.1-1.3-7.4
		c0-0.1,0-0.2,0-0.4c0-0.3,0.1-0.6,0.3-0.9c-2.8,1.5-3.1,3-1.7,6.2c0.9,2.2,2.8,3.9,3.4,6.3c0.2,0.3,0.3,0.7,0.4,1
		c0.6,1.6,1.1,3.1,1.7,4.7c1.9,5.6,5.1,10.4,8.8,14.9c1.9,2.3,4,4.5,7.5,3.8c0.7-0.1,1.4-0.1,1.8,0.9c1.8,4.5,4.4,8.7,7.1,12.7
		c0.3-0.2,0.6-0.4,1-0.6C95.1,130.4,92.7,128,91.5,124.9z M73.3,87.7c-2.1-4.9,0.8-9.1,6.1-9.2c0.7,0,1.1,0.1,1.2,0.8
		c0.5,2.1,1.1,4.2,1.2,6.3c0.2,2.4-2.4,4.3-5.3,4.3C74.9,89.9,73.9,89.1,73.3,87.7z"/>
	<path class="st6" d="M69,82.9c0,0.2,0,0.4,0,0.6c0.1,0,0.2-0.1,0.3-0.1c0-0.1,0.1-0.2,0.1-0.2c0-0.2,0.1-0.3,0.2-0.5
		C69.4,82.7,69.2,82.8,69,82.9L69,82.9z"/>
	<path class="st6" d="M66.5,84.7c0.1-0.2,0.2-0.3,0.3-0.5c0-0.3,0-0.5-0.1-0.8c-0.2,0.3-0.3,0.5-0.3,0.9
		C66.5,84.5,66.5,84.6,66.5,84.7z"/>
	<path class="st0" d="M198.1,233.3c-1.3,0.2-2.6,0.4-3.8,0.7c-2.5,0.7-4.6,4.2-3.2,5.5c2.4,2.1,5.1,3.9,8.3,4.5
		c3.7,0.7,3.1-2.2,3.3-4C203,235.9,201.1,232.8,198.1,233.3z"/>
	<path class="st7" d="M92,138.9c0.5-0.5,0.9-1.4,1.8-1c0.8,0.3,0.7,1.2,0.7,2c0,0.7-0.2,1.4,0.1,2.1c0.1-0.3,0.3-0.6,0.4-0.8v0
		c0,0,0,0,0,0c-0.2-0.4-0.3-0.7-0.5-1.1c0,0,0,0,0,0c0,0,0,0,0,0c0.8-1.5,0.2-3.6,2.2-4.5c0-0.6,0-1.3,0-1.9c-0.2,0.3-0.5,0.4-1,0.3
		c-3,2.3-4.9,5.4-6.8,8.5C90.6,141.8,90.9,140,92,138.9z"/>
	<path class="st7" d="M91,141.4c0.8-1.1,1.5-2.4,2.6-3.2c1.3,1.3-1.2,3.1,0.9,4.1c0.1-0.1,0.1-0.3,0.2-0.4c-0.3-0.7-0.1-1.4-0.1-2.1
		c0-0.7,0.1-1.6-0.7-2c-0.9-0.4-1.3,0.5-1.8,1c-1.1,1.1-1.4,2.9-3.1,3.4C90.2,143.3,90.5,142.1,91,141.4z"/>
	<path class="st7" d="M96.7,133.6c0-0.1,0-0.2,0-0.3c-0.3,0.2-0.6,0.4-1,0.6C96.2,134,96.5,133.8,96.7,133.6z"/>
	<path class="st3" d="M87,131.5c-0.1-0.6-0.3-1.4-1.1-1.5c-1.1-0.2-1.3,0.8-1.5,1.6c-0.2,0.5-0.1,1.1-0.1,1.6c0.5,0,0.9,0,1.4,0
		C86.7,133.1,87.2,132.5,87,131.5z"/>
	<polygon class="st3" points="84.3,133.3 84.3,133.3 84.3,133.3 	"/>
	<path class="st8" d="M85,161c-0.1,1.1-0.1,2.2-0.2,3.4c0,1.9,0,3.7,0,5.6c0,0,0,0,0,0c0,0,0,0,0,0c0.1,1.1,0.2,2.2,0.2,3.4
		C85,169.3,85,165.1,85,161z"/>
	<path class="st8" d="M85,161c0.1,4.1,0,8.2,0,12.3C85.7,169.3,85.8,165.1,85,161z"/>
	<path class="st3" d="M68.5,96c-0.7,1.6,0.9,3,0.3,4.8c-0.2,0.6,1,0.9,1.7,0.9c-1.4-1.2-1.3-3-1.7-4.7C68.7,96.7,68.6,96.3,68.5,96z
		"/>
	<path class="st3" d="M70.5,101.7c-0.6-1.6-1.1-3.1-1.7-4.7C69.3,98.6,69.1,100.4,70.5,101.7z"/>
	<path class="st3" d="M84.8,164.4c-0.7,1.9-0.7,3.7,0,5.6C84.5,168.1,84.5,166.3,84.8,164.4z"/>
	<path class="st3" d="M84.8,164.4c-0.3,1.9-0.2,3.7,0,5.6c0,0,0,0,0,0C84.8,168.1,84.8,166.3,84.8,164.4z"/>
	<path class="st9" d="M100.2,84.3c-0.7-2.4-0.7-4.8-1.1-7.2c0-0.1,0-0.1,0-0.2c-4.7-0.1-9.4,0.2-14.1,0.6c0.4,1.9-0.2,3.8-0.1,5.7
		c0.1,2.5,1.3,3,3.3,3.2c4.2,0.4,5.8,1.7,6.4,5.1c0.4,2.4-1.8,5.7-4.7,6.9c-4.5,1.9-5.1,3.6-3.2,8.1c0.6,1.3,1,2.8,1.1,4.3
		c0.2,2.9,1.3,5.1,4.2,6.2c6.4-3.7,11-9,14.4-16.5c-0.1,3.4-1.8,5.2-2.7,7.3c0.3,6.2-3.6,10.1-7.5,13.9c-1.1,1.1-2.1,2.7-3.8,3.1
		c1.2,3,3.8,5.3,4.8,8.4c0,0.1-0.1,0.2-0.1,0.3c0.5,0.5,0.5,1.1,0.4,1.8c-0.1,0.2-0.2,0.4-0.3,0.6c0.1,0.3,0.3,0.6,0.4,1
		c-0.5,1.5-0.6,3.1-2,4.2c0,0.1,0,0.2,0,0.3c-0.1,0.4-0.3,0.7-0.6,1c0,0,0,0.1,0.1,0.1c0.6,1.7,1.3,3.1,3.5,2.5
		c0.2-0.1,0.4-0.1,0.5-0.2c4.7-4.9,9.4-9.9,14.2-14.6c3.8-3.7,8.3-6.6,13.3-8.6c-0.3-0.3-0.6-0.6-0.8-1c-0.1-0.2-0.3-0.4-0.4-0.7
		c-1.2-0.8-1.6-2.3-2.3-3.5c-1.6-2.7-3-5.5-3.7-8.6c-0.1-0.3-0.2-0.5-0.2-0.8c-0.2,0-0.3,0-0.5-0.1c-3.9-1.9-5.2-5.2-5-9.3
		c0.1-2.3,0-4.7,0.1-7c-1.6,1.4-3.1,2.9-5.4,3.4c1.8-1.6,3.7-3.2,5.5-4.8c0-0.1,0-0.2,0-0.2c0.4-1.5,1.5-2.6,2.3-3.8
		c1.3-2,1.4-4,0.1-6c-1.4-2.2-3.3-2.4-6.6-0.9c-0.3,0-0.5,0-0.7,0c-0.5,0.6-1.1,1.2-1.6,1.8c0,0.2-0.1,0.5-0.1,0.7
		c-1.4,1.1-2.4,2.5-3.2,4.2c-0.4,0.9-0.8,2.2-2,2.2c-0.1,0.1-0.1,0.2-0.2,0.3c0-0.1-0.1-0.2-0.1-0.3
		C100.4,86.8,100.5,85.3,100.2,84.3z M108.2,81.7c1.9-1.6,3.3-4.3,6.6-2.8c1,1.8,0.7,3.8,0.8,5.8c-1,2.2-2.7,3.6-4.5,5
		c-1.1-0.9-1.1-2.3-1.1-3.5C109.8,84.5,109.3,83,108.2,81.7C108.2,81.7,108.2,81.7,108.2,81.7L108.2,81.7z"/>
	<path class="st9" d="M98.3,144.8c-2.2,0.6-2.9-0.8-3.5-2.5c0,0,0-0.1-0.1-0.1c-0.1,0.1-0.2,0.1-0.3,0.2c0.6,3.7,1.1,4.1,3.9,2.7
		c0.2-0.2,0.3-0.3,0.5-0.5C98.7,144.7,98.5,144.7,98.3,144.8z"/>
	<path class="st9" d="M118.9,106.9c0.1,0.3,0.2,0.5,0.2,0.8C119.1,107.4,119.1,107.1,118.9,106.9C119,106.9,119,106.9,118.9,106.9z"
		/>
	<path class="st9" d="M125.5,120.4c0.2,0.4,0.4,0.7,0.8,1c0.1,0,0.2-0.1,0.4-0.2c0,0,0,0,0,0v0c-0.2-0.3-0.4-0.7-0.6-1
		c-0.4-0.1-0.7-0.3-1-0.5C125.3,120,125.4,120.2,125.5,120.4z"/>
	<path class="st9" d="M103.9,84.9c0.8-1.7,1.8-3.1,3.2-4.2c0-0.3,0-0.5,0.1-0.7c-0.1,0.1-0.1,0.2-0.2,0.2c-2.8,1.2-3.4,4.2-5.1,6.9
		C103.1,87.2,103.5,85.8,103.9,84.9z"/>
	<path class="st9" d="M113.5,97.5c-0.2,4.1,1.2,7.4,5,9.3c0.2,0.1,0.3,0.1,0.5,0.1c0-0.1-0.1-0.2-0.1-0.3c-0.1-0.4-0.1-0.8-0.1-1.2
		c-0.1-0.2-0.2-0.4-0.4-0.4c-4.3-0.4-3.8-3.8-4.1-6.4c-0.3-2.8,0-5.8,0-8.7c-0.2,0.2-0.5,0.4-0.7,0.6
		C113.4,92.8,113.6,95.1,113.5,97.5z"/>
	<path class="st9" d="M109.5,78.2c3.3-1.6,5.2-1.4,6.6,0.9c1.3,2,1.2,4.1-0.1,6c-0.8,1.2-1.9,2.3-2.3,3.8c0,0.1,0,0.2,0,0.2
		c0.2-0.2,0.4-0.3,0.6-0.5c0.9-1.2,1.8-2.4,2.6-3.6c1.6-2.8,1.1-5.6-1.2-7.5c-2.3-2-4.5-1.2-6.5,0.5c-0.1,0.1-0.2,0.2-0.3,0.3
		C109,78.2,109.2,78.2,109.5,78.2z"/>
	<path class="st9" d="M99,77.1c0.5,2.4,0.5,4.9,1.1,7.2c0.3,1,0.2,2.5,1.5,2.8c-1.2-3.6-1.3-7-2.1-10.2c-0.2,0-0.4,0-0.5,0
		C99,77,99,77,99,77.1z"/>
	<path class="st9" d="M118.9,106.9C119,106.9,119,106.9,118.9,106.9c0.1-0.1,0-0.1,0-0.2c-0.2-0.3-0.1-0.9-0.2-1.3
		c0,0.4,0,0.7,0.1,1.2C118.9,106.7,118.9,106.8,118.9,106.9z"/>
	<path class="st9" d="M96.9,133.1c-1.1-3.1-3.6-5.3-4.8-8.4c-0.2,0-0.4,0.1-0.6,0.1v0l0,0c1.2,3.1,3.5,5.6,5.2,8.5
		c0,0,0.1,0.1,0.1,0.1C96.9,133.3,96.9,133.2,96.9,133.1z"/>
	<path class="st9" d="M95.3,141.2c0-0.1,0-0.2,0-0.3c-0.1,0.1-0.2,0.2-0.3,0.2v0c-0.1,0.3-0.3,0.6-0.4,0.8c0,0.1,0.1,0.1,0.1,0.2
		C95,141.9,95.2,141.6,95.3,141.2z"/>
	<path class="st9" d="M97.2,135.2c0.1-0.7,0.2-1.3-0.4-1.8c0,0.1-0.1,0.1-0.1,0.2c0,0.6,0,1.3,0,1.9c0,0.1,0.1,0.2,0.1,0.3
		C97,135.6,97.1,135.4,97.2,135.2z"/>
	<path class="st9" d="M94.7,142c-0.1,0.1-0.1,0.3-0.2,0.4c0.1-0.1,0.2-0.1,0.3-0.2C94.7,142.1,94.7,142,94.7,142z"/>
	<path class="st9" d="M96.7,133.3c0,0.1,0,0.2,0,0.3c0,0,0.1-0.1,0.1-0.2C96.8,133.4,96.7,133.4,96.7,133.3z"/>
	<path class="st10" d="M148.1,147.7c-1.2,0.3-2.3,0.7-3.4,1.1C145.9,148.5,147,148,148.1,147.7z"/>
	<path class="st10" d="M134,122.7c-0.6-0.3-1.1-0.5-1.7-0.7c0.6,0.5,1.1,1.2,1.7,1.8c5.4,6.2,10.5,12.7,15.4,19.3
		c0.4,0.6,0.8,1.3,1.1,2c0.4,0.9,0.4,1.6-0.3,1.9c5.2-1,9.6,1.4,13.6,4.7c1.6,1.3,3.2,2.6,4.6,4.1c-2.9-4.6-6-9-9.5-13.2
		C152,134.4,143.8,127.5,134,122.7z M152.7,146.8c-0.7,0-0.9-0.5-1.2-1c-4.7-6.9-9.8-13.5-15.3-19.8c-0.5-0.6-1.2-1.2-1.3-2.5
		c13.5,6.9,23.2,17.3,31.1,29.7C162.2,149.8,158.1,147,152.7,146.8z"/>
	<path class="st10" d="M144.7,148.7c1.1-0.4,2.3-0.8,3.4-1.1c0,0,0.1,0,0.1,0c0.7-0.2,1.3-0.4,1.9-0.5c0.6-0.4,0.7-1,0.3-1.9
		c-0.3-0.7-0.7-1.4-1.1-2c-4.9-6.7-10-13.1-15.4-19.3c-0.5-0.6-1-1.3-1.7-1.8c-0.7-0.2-1.5-0.4-2.2-0.7c0,0,0,0,0,0
		c3.1,1.8,5,4.9,7.2,7.6c4.3,5.3,8.7,10.5,12.4,16.2c0.7,1.1,0.7,1.4-0.7,1.8c-1.9,0.5-3.9,0.7-5.4,2.1l0,0c0.1-0.1,0.2-0.1,0.3-0.2
		C144.2,148.9,144.5,148.8,144.7,148.7z"/>
	<path class="st10" d="M143.7,149.1c0.3-0.1,0.7-0.2,1-0.4c-0.3,0.1-0.5,0.1-0.8,0.2C143.8,149,143.7,149,143.7,149.1L143.7,149.1
		C143.7,149.1,143.7,149.1,143.7,149.1z"/>
	<path class="st10" d="M171.2,160.6c-0.9-1.5-1.9-3.1-2.9-4.6c-1.4-1.5-3-2.8-4.6-4.1c-4-3.3-8.4-5.7-13.6-4.7
		c-0.2,0.1-0.5,0.2-0.9,0.3c-0.4,0.1-0.8,0.2-1.2,0.3c-1.1,0.4-2.3,0.8-3.4,1.1c-0.3,0.1-0.7,0.2-1,0.4c0,0,0,0,0,0l0,0.1
		c1.1,0.1,2-0.2,3-0.6c4.3-1.5,8.5-1.4,12.4,1c4,2.4,7.7,5.4,10.4,9.3c0.5,0.7,0.7,1.8,1.8,2.1c0-0.1,0-0.1,0-0.2
		C171.3,160.7,171.3,160.7,171.2,160.6z"/>
	<path class="st10" d="M148.1,147.7c0.4-0.1,0.8-0.2,1.2-0.3c0.4-0.1,0.7-0.2,0.9-0.3c-0.6,0.1-1.3,0.3-1.9,0.5
		C148.2,147.6,148.2,147.6,148.1,147.7z"/>
	<path class="st10" d="M134,122.7c9.8,4.8,17.9,11.7,24.9,20c3.5,4.2,6.6,8.6,9.5,13.2c0.7,0.7,1.3,1.5,1.9,2.3
		c-8-14.2-18.3-26.3-32.8-34.5c-2-1.1-4-2.4-6.4-2.4c0.5,0.2,0.9,0.4,1.3,0.8C132.9,122.3,133.5,122.5,134,122.7z"/>
	<path class="st10" d="M130.2,121.4L130.2,121.4C130.2,121.4,130.2,121.4,130.2,121.4C130.2,121.4,130.2,121.4,130.2,121.4
		C130.2,121.4,130.1,121.4,130.2,121.4c0.7,0.3,1.4,0.5,2.1,0.7c-0.4-0.3-0.8-0.6-1.3-0.8C130.7,121.3,130.4,121.3,130.2,121.4
		C130.1,121.4,130.1,121.4,130.2,121.4z"/>
	<path class="st10" d="M171.2,160.6c0,0.1,0.1,0.1,0.1,0.2c0-0.1,0-0.3,0-0.4c-0.4-0.7-0.8-1.4-1.2-2.1c-0.6-0.8-1.2-1.5-1.9-2.3
		C169.3,157.5,170.3,159,171.2,160.6z"/>
	<polygon class="st10" points="130.2,121.4 130.2,121.4 130.2,121.4 	"/>
	<path class="st11" d="M101.4,142.8c-0.5,0.4-0.9,0.8-1.4,1.2C100.5,143.7,101,143.3,101.4,142.8z"/>
	<path class="st11" d="M126.6,121.6c0,0,0,0.1-0.1,0.1c0.1,0,0.1,0,0.2-0.1C126.7,121.7,126.7,121.7,126.6,121.6
		C126.6,121.6,126.6,121.6,126.6,121.6z"/>
	<path class="st11" d="M126.7,121.7c-0.1,0-0.1,0-0.2,0.1c-0.2,0.3-0.6,0.5-1,0.6c-7.7,3-13.2,8.8-18.7,14.6
		c-1.8,1.9-3.4,4.1-5.4,5.9c-0.4,0.4-0.9,0.9-1.4,1.2c-0.5,0.4-1,0.7-1.6,1c0.7,1.1,1.3,0.2,1.8-0.2c1.5-1.4,2.9-2.9,4.3-4.4
		c7.3-8,14.4-16.3,25.7-19c0,0,0,0,0,0C129,121.1,127.9,122,126.7,121.7z"/>
	<path class="st11" d="M126.6,121.6C126.7,121.7,126.7,121.7,126.6,121.6c1-0.3,2-0.5,3-0.5c0.1,0,0.2,0,0.2,0
		c-1-0.9-2.2,0.9-3.2,0.2C126.7,121.4,126.6,121.5,126.6,121.6C126.6,121.6,126.6,121.6,126.6,121.6z"/>
	<path class="st11" d="M126.7,121.7c1.2,0.3,2.2-0.6,3.4-0.3c0,0,0,0,0,0c0,0,0,0,0,0c-0.1-0.1-0.2-0.2-0.2-0.3c-0.1,0-0.2,0-0.2,0
		C128.7,121.2,127.7,121.4,126.7,121.7z"/>
	<path class="st11" d="M126.3,121.4c-5,1.9-9.5,4.8-13.3,8.6c-4.9,4.7-9.5,9.7-14.2,14.6c0.4-0.2,0.8-0.3,1.2-0.6
		c0.5-0.4,1-0.8,1.4-1.2c0.8-0.8,1.5-1.8,2.3-2.7c4.9-5.5,10-11,16.1-15.1c2.1-1.4,4.3-2.6,6.6-3.3c0,0,0-0.1,0.1-0.1
		C126.5,121.6,126.4,121.5,126.3,121.4z"/>
	<path class="st11" d="M103.7,140.1c-0.8,0.9-1.5,1.8-2.3,2.7c1.9-1.8,3.5-4,5.4-5.9c5.5-5.8,11.1-11.5,18.7-14.6
		c0.4-0.2,0.8-0.3,1-0.6c-2.4,0.7-4.6,1.9-6.6,3.3C113.7,129.2,108.7,134.6,103.7,140.1z"/>
	<path class="st11" d="M98.8,144.6c-0.2,0.2-0.3,0.3-0.5,0.5c0.6-0.3,1.1-0.7,1.6-1C99.7,144.3,99.3,144.4,98.8,144.6z"/>
	<path class="st11" d="M126.3,121.4c0.1,0.1,0.2,0.1,0.3,0.2c0-0.1,0.1-0.2,0.1-0.3c0,0,0,0,0,0
		C126.6,121.3,126.5,121.4,126.3,121.4z"/>
	<path class="st11" d="M130.1,121.4C130.1,121.4,130.1,121.4,130.1,121.4C130.1,121.4,130.1,121.4,130.1,121.4
		C130.1,121.4,130.1,121.4,130.1,121.4C130.1,121.4,130.1,121.4,130.1,121.4z"/>
	<path class="st11" d="M130.1,121.4C130.1,121.4,130.1,121.4,130.1,121.4L130.1,121.4C130.1,121.4,130.1,121.4,130.1,121.4z"/>
	<path class="st11" d="M130.1,121.4C130.1,121.4,130.1,121.4,130.1,121.4C130.1,121.4,130.1,121.4,130.1,121.4
		C130.1,121.4,130.1,121.4,130.1,121.4z"/>
	<path class="st11" d="M130.2,121.4L130.2,121.4C130.1,121.4,130.1,121.4,130.2,121.4C130.1,121.4,130.1,121.4,130.2,121.4
		L130.2,121.4z"/>
	<path class="st11" d="M130.2,121.4C130.1,121.4,130.1,121.4,130.2,121.4C130.1,121.4,130.1,121.4,130.2,121.4
		C130.1,121.4,130.2,121.4,130.2,121.4C130.2,121.4,130.2,121.4,130.2,121.4z"/>
	<path class="st12" d="M144.7,209.5c-3-8-6.5-15.8-10.8-23.1C138.2,193.7,141.6,201.5,144.7,209.5z"/>
	<path class="st12" d="M133.9,186.3c-0.9-1.6-1.9-3.1-2.9-4.7C132,183.2,133,184.8,133.9,186.3z"/>
	<path class="st12" d="M144.7,209.5c0.4,1.2,0.9,2.3,1.3,3.5l0,0C145.6,211.8,145.1,210.6,144.7,209.5z"/>
	<path class="st12" d="M133.9,186.3c-0.9-1.6-1.9-3.1-2.9-4.7C132,183.2,133,184.8,133.9,186.3c4.3,7.4,7.8,15.1,10.8,23.1
		c0.4,1.1,0.9,2.3,1.3,3.5l0,0c-0.1-0.6-0.1-1.3-0.3-1.9c-3.7-10.3-8.3-20.2-14.2-29.4c-0.5-0.8-1.1-1.7-2.7-1.8
		c5.2,6.4,8.4,13.5,11.6,20.6c1.9,4.2,3.6,8.4,5.4,12.7l0.1-0.1c-0.4-1.2-0.8-2.3-1.3-3.5C141.6,201.5,138.2,193.7,133.9,186.3z"/>
	<path class="st13" d="M92.2,204c0,0.1,0.1,0.2,0.1,0.4C92.3,204.3,92.3,204.2,92.2,204z"/>
	<path class="st13" d="M92.1,204.1C92.2,204.1,92.2,204,92.1,204.1c0.1-1.8,0.2-3.5-0.1-5.2c-1.1-6.7-5.2-12.4-5.9-19.1
		c-0.1,0.4-0.1,0.7-0.2,1.1c1.4,5.2,3.1,10.3,5.2,15.4C92.1,198.6,92,201.4,92.1,204.1z"/>
	<path class="st13" d="M86.1,181.8c0.3,1.4,0.5,2.7,0.8,4.1c1.2,4.7,3.5,9,4.5,13.8c-0.8-4.5-2.8-8.8-4.3-13.2
		C86.6,184.9,86.7,183.3,86.1,181.8z"/>
	<path class="st13" d="M91.8,204.5L91.8,204.5c0.1-0.1,0.2-0.3,0.4-0.4c-0.1-2.7,0-5.5-1-7.8c-2.1-5-3.8-10.1-5.2-15.4v0
		c0.1,0.3,0.1,0.6,0.2,0.9c0.6,1.5,0.5,3.1,1.1,4.7c1.5,4.4,3.5,8.6,4.3,13.2C91.7,201.2,91.9,202.8,91.8,204.5z"/>
	<path class="st14" d="M151,228.2c0.6,1.5,1.3,3,2,4.5c0-0.1,0-0.1,0-0.2C152.3,231.1,151.6,229.7,151,228.2z"/>
	<path class="st14" d="M149.9,225.5c-1.3-3.3-2.3-6.8-3.3-10.2C147.6,218.8,148.7,222.2,149.9,225.5z"/>
	<path class="st14" d="M146.6,215.3c-0.2-0.7-0.4-1.4-0.5-2c0-0.1-0.1-0.2-0.1-0.3c0,0,0,0,0,0c0,0,0,0.1,0,0.1
		C146.2,213.8,146.4,214.6,146.6,215.3z"/>
	<path class="st14" d="M151,228.2c0-0.1-0.1-0.2-0.1-0.3c-0.3-0.7-0.6-1.4-0.8-2.1c0-0.1-0.1-0.2-0.1-0.3c-1.3-3.3-2.4-6.8-3.3-10.2
		c-0.2-0.7-0.4-1.5-0.7-2.2c0,0,0-0.1,0-0.1c0,0-0.1,0.1-0.1,0.1c1.6,7.1,3.6,14.2,7.4,20.5c-0.2-0.3-0.2-0.6-0.2-0.8
		C152.3,231.2,151.7,229.7,151,228.2z"/>
	<path class="st14" d="M146.6,215.3c1,3.4,2,6.9,3.3,10.2c0,0.1,0.1,0.2,0.1,0.3c0.3,0.7,0.5,1.4,0.8,2.1c0,0.1,0.1,0.2,0.1,0.3
		c0.6,1.5,1.3,2.9,2.1,4.3c0-0.1,0.1-0.2,0.2-0.3c-1.2-2.7-2.2-5.5-3.5-8.2c-1.6-3.6-1.9-7.6-3.8-11c0,0,0,0,0,0
		c0,0.1,0.1,0.2,0.1,0.3C146.3,214,146.5,214.6,146.6,215.3z"/>
	<path class="st14" d="M153.1,232.5c0,0.1,0,0.1,0,0.2c0.1,0.1,0.1,0.3,0.2,0.4c0-0.1,0-0.2,0-0.3
		C153.2,232.7,153.2,232.6,153.1,232.5z"/>
	<path class="st14" d="M153.3,233.1c-0.1-0.1-0.1-0.3-0.2-0.4c0,0.3,0,0.6,0.2,0.8c0,0,0,0,0,0C153.3,233.4,153.3,233.3,153.3,233.1
		z"/>
	<path class="st14" d="M153.3,232.8c0-0.2,0-0.4,0-0.7c-0.1,0.1-0.2,0.2-0.2,0.3C153.2,232.6,153.2,232.7,153.3,232.8z"/>
	<path class="st15" d="M180.4,199.3c-0.4-2.9-1.3-5.7-3-8.2c-0.9-1.4-1-3-1-4.6c0-1.1,0-2.2-0.5-3.1c0,0.1,0,0.1,0,0.2v0
		c-0.2,3.5,0,6.7,2.2,9.8c1.2,1.7,1.7,3.9,1.8,6.1c0,0,0,0,0,0c0,0,0,0,0,0C180,199.2,180.2,199.2,180.4,199.3z"/>
	<path class="st15" d="M176.4,183.7c0,3.7,0.8,7.1,2.8,10.3c0.7,1.1,1,2.3,1.3,3.6c-0.1-0.6-0.2-1.2-0.4-1.8
		c-1.3-3.8-3.8-7.2-3.5-11.5c0-0.5-0.4-1-0.6-1.5c0,0,0,0.1,0,0.1C176.1,183.2,176.2,183.5,176.4,183.7z"/>
	<path class="st15" d="M176.4,183.7c-0.2-0.2-0.3-0.5-0.4-0.7c0,0.1,0,0.2,0,0.4c0.5,1,0.5,2.1,0.5,3.1c0,1.6,0,3.2,1,4.6
		c1.6,2.5,2.5,5.3,3,8.2c0,0,0.1,0.1,0.1,0.1c0.1-0.6,0.1-1.2,0-1.8c-0.3-1.3-0.6-2.5-1.3-3.6C177.2,190.8,176.4,187.4,176.4,183.7z
		"/>
	<path class="st15" d="M180.4,199.3c-0.2-0.1-0.3-0.1-0.5,0.1c0,0,0,0,0,0c0.2,0,0.3,0,0.5,0C180.4,199.4,180.4,199.3,180.4,199.3z"
		/>
	<path class="st15" d="M180.4,199.4C180.4,199.4,180.4,199.4,180.4,199.4c0.1,0,0-0.1,0-0.1C180.4,199.3,180.4,199.4,180.4,199.4z"
		/>
	<path class="st16" d="M175.7,183.1c0,0,0-0.1-0.1-0.1c-1.9-2.6-1.5-5.5-0.7-8.4c0.4-1.7,1-3.4,0.4-5.2c0,0,0,0,0,0
		c0,1.9-0.6,3.6-0.9,5.4c-0.6,3.1-1.3,6.2,1.5,8.7c0,0,0,0,0,0C175.7,183.4,175.7,183.2,175.7,183.1z"/>
	<path class="st16" d="M175.9,182.9C175.9,182.9,175.9,182.9,175.9,182.9c-1.3-2.6-1.4-5.1-0.6-7.9c0.4-1.3,0.9-2.7,0.7-4.1
		c0,1.3-0.5,2.5-0.8,3.7C174.4,177.6,174.5,180.3,175.9,182.9z"/>
	<path class="st16" d="M174.9,174.6c-0.7,2.9-1.1,5.7,0.7,8.4c0,0,0,0.1,0.1,0.1c0-0.1,0.1-0.1,0.2-0.2c-1.4-2.6-1.5-5.3-0.7-8.2
		c0.3-1.2,0.8-2.5,0.8-3.7c-0.1-0.5-0.3-1-0.6-1.5C176,171.2,175.4,172.9,174.9,174.6z"/>
	<path class="st16" d="M175.7,183.1c-0.1,0.1,0,0.3,0.1,0.5c0-0.1,0-0.1,0-0.2C175.9,183.3,175.8,183.2,175.7,183.1z"/>
	<path class="st16" d="M175.9,183c0,0,0-0.1,0-0.1C175.9,182.9,175.9,182.9,175.9,183C175.9,183,175.9,183,175.9,183z"/>
	<path class="st16" d="M175.9,182.9c-0.1,0.1-0.1,0.1-0.2,0.2c0.1,0.1,0.1,0.2,0.2,0.3C175.9,183.2,175.9,183.1,175.9,182.9
		C175.9,183,175.9,183,175.9,182.9z"/>
	<path class="st17" d="M143,149.5c-2.3,1.2-4.5,2.5-6.4,4.2C138.5,151.9,140.8,150.7,143,149.5z"/>
	<path class="st17" d="M143.7,149.1C143.7,149.1,143.7,149.1,143.7,149.1c-0.2,0.1-0.4,0.2-0.7,0.3
		C143.2,149.3,143.4,149.2,143.7,149.1z"/>
	<path class="st17" d="M143,149.5c-2.2,1.2-4.5,2.5-6.4,4.2c-0.4,0.3-0.8,0.7-1.1,1.1c0.4-0.4,0.7-0.7,1.1-1.1
		C138.5,151.9,140.7,150.6,143,149.5c0.2-0.1,0.4-0.2,0.6-0.4c0,0,0,0,0,0c-4.2,1.1-7.2,3.8-9.6,7.2c2.7-3.2,6.6-4.5,9.7-7.1
		c0,0,0,0,0-0.1C143.4,149.2,143.2,149.3,143,149.5z"/>
	<path class="st18" d="M129.5,164.4c-1.9,3.9-2.2,10.2-0.6,13.4C127.8,172.7,128.8,168.6,129.5,164.4z"/>
	<path class="st19" d="M175.4,169.5c-0.8-3.1-2.3-5.9-3.9-8.6c0,0.1-0.1,0.1-0.1,0.1C172.7,163.8,174,166.6,175.4,169.5L175.4,169.5
		C175.4,169.5,175.4,169.5,175.4,169.5z"/>
	<path class="st19" d="M171.8,161c1.3,2.4,2.6,4.8,3.5,7.4C175.1,165.5,173.4,163.2,171.8,161z"/>
	<path class="st19" d="M171.5,160.8c0,0.1,0,0.1-0.1,0.1c1.7,2.7,3.1,5.5,3.9,8.6c0-0.4,0-0.8,0-1.1c-1-2.6-2.2-5-3.5-7.4
		c-0.1-0.2-0.3-0.4-0.4-0.6C171.5,160.5,171.6,160.7,171.5,160.8z"/>
	<path class="st19" d="M171.4,160.8c0,0.1,0,0.1,0,0.2c0,0,0.1,0,0.1-0.1C171.4,160.9,171.4,160.8,171.4,160.8z"/>
	<path class="st19" d="M171.4,160.3c0,0.1,0,0.3,0,0.4c0,0,0.1,0.1,0.1,0.1c0,0,0-0.1,0.1-0.1C171.6,160.7,171.5,160.5,171.4,160.3z
		"/>
	<path class="st20" d="M92.2,204.6c0.3,3,0.6,6,0.6,9v0c0.6-3.1,0.2-6.2-0.5-9.2C92.3,204.4,92.2,204.5,92.2,204.6
		C92.2,204.5,92.2,204.5,92.2,204.6z"/>
	<polygon class="st20" points="92.2,204 92.2,204 92.2,204 92.2,204 	"/>
	<path class="st20" d="M92.2,204.6C92.2,204.5,92.2,204.5,92.2,204.6c-0.1,0-0.2,0-0.4,0c0.3,3,0.7,6,1,9v0
		C92.8,210.5,92.5,207.5,92.2,204.6z"/>
	<path class="st20" d="M92.2,204.5c0.1,0,0.1-0.1,0.1-0.1c0-0.1,0-0.2-0.1-0.4c0,0,0,0,0,0c0,0,0,0,0,0c0,0-0.1,0.1-0.1,0.1
		C92.1,204.2,92.2,204.4,92.2,204.5z"/>
	<path class="st20" d="M92.1,204.1c-0.1,0.1-0.2,0.3-0.4,0.4c0.2,0,0.3,0,0.4,0C92.2,204.4,92.1,204.2,92.1,204.1z"/>
	<path class="st21" d="M124.3,117.8c0.6,0.8,1.2,1.7,1.9,2.5c-2.5-4.4-4.9-8.8-6.8-13.5c-0.1,0.1-0.2,0.1-0.3,0.1
		C120.8,110.5,121.7,114.5,124.3,117.8z"/>
	<path class="st21" d="M119.4,106.7L119.4,106.7c-0.1-0.1-0.3-0.1-0.4,0c0,0,0,0.1,0.1,0.2C119.2,106.8,119.3,106.8,119.4,106.7z"/>
	<path class="st21" d="M122.8,116.3c0.7,1.2,1.1,2.6,2.3,3.5c-2.4-3.9-4.6-7.7-6-12.1C119.9,110.8,121.2,113.6,122.8,116.3z"/>
	<path class="st21" d="M119,106.8C119,106.9,119,106.9,119,106.8c0,0.3,0.1,0.5,0.1,0.8c1.3,4.4,3.6,8.3,6,12.1
		c0.3,0.2,0.6,0.4,1,0.5c-0.7-0.8-1.2-1.7-1.9-2.5C121.7,114.5,120.8,110.5,119,106.8z"/>
	<path class="st21" d="M119,106.8c0,0,0-0.1-0.1-0.2C119,106.8,119,106.8,119,106.8C119,106.9,119,106.9,119,106.8z"/>
	<path class="st22" d="M72.3,79.1c1.3-1.6,3.1-3.3,5.9-2c0.9,0.4,2.1-0.4,3.2-0.6c1-0.1,2-0.5,3,0.1c0,0.1,0.1,0.1,0.1,0.2
		c1.7-0.2,3.4-0.4,5.1-0.4c2.4-0.3,4.8-0.5,7.2-0.4c0.6,0,1.2,0,1.8,0.2c0.1,0,0.3,0,0.4,0c-0.2-2,0.3-4.1-0.1-6.4
		c0,1,0.5,2-0.4,2.4c0,0.1,0,0.2,0,0.3c-0.1-0.1-0.2-0.2-0.2-0.3c-0.8,0.1-1.4-0.6-1.8-1.2c-1.4-1.6-2-3.6-2.5-5.6
		c-0.5-1.9-1.7-2.4-3.4-2c-5.2,1.2-10.1,2.8-14.7,5.5c-1.2,0.7-2.1,1.6-2.5,2.9c-0.8,2.4-1.5,4.9-3.4,6.8c-0.3,0.3-0.7,1-0.3,1.2
		c0.6,0.4,0.8,0.7,0.8,1.1c0,0,0.1,0.1,0.1,0.1c0,0-0.1,0-0.1,0c0,0.2-0.1,0.5-0.2,0.7C70.7,81,71.5,80,72.3,79.1z"/>
	<path class="st22" d="M70.1,81.2c-0.7,0.3-1.5,0.4-1.9,0.9c-0.6,0.9,0.3,0.7,0.8,0.8c0.3-0.3,0.6-0.7,0.9-1
		C70,81.7,70.1,81.5,70.1,81.2z"/>
	<path class="st22" d="M98.8,69.8c0.4,2.3-0.1,4.4,0.1,6.4c0.2,0,0.4,0,0.7,0c-0.1-2.3,0.4-4.7-1-7.4c-0.1,1.3-0.1,2.2-0.2,3.4
		C99.3,71.8,98.7,70.8,98.8,69.8z"/>
	<path class="st22" d="M69.4,80c-0.4-0.3,0-0.9,0.3-1.2c1.8-1.9,2.6-4.3,3.4-6.8c0.4-1.3,1.3-2.2,2.5-2.9c4.6-2.7,9.6-4.3,14.7-5.5
		c1.7-0.4,2.9,0.1,3.4,2c0.6,2,1.2,4,2.5,5.6c0.5,0.6,1,1.3,1.8,1.2c-2.2-2.4-3.3-4.9-3.8-7.5c-0.4-2.1-1.4-2.4-3.2-2
		c-5.6,1.1-10.9,2.8-15.8,5.6c-1.6,0.9-2.7,2.1-3.1,4c-0.4,2.2-1.2,4.3-3.2,5.8c-0.8,0.6-1.2,1.6-0.9,2.5c0.3,1,1.4-0.5,2,0.4
		C70.1,80.7,69.9,80.4,69.4,80z"/>
	<path class="st22" d="M84.3,76.7c-1-0.7-2-0.3-3-0.1c-1.1,0.1-2.3,1-3.2,0.6c-2.7-1.3-4.5,0.4-5.9,2c-0.8,0.9-1.6,1.9-2.4,2.8
		c-0.1,0.2-0.3,0.5-0.4,0.7c1.3-0.6,3-0.8,2.9-3c0-0.2,0.5-0.6,0.8-0.7c1.6-0.8,2.7-2.4,5.2-1.3c1.5,0.6,3.9-0.8,5.9-0.8
		c0,0,0.1,0,0.1,0C84.4,76.8,84.4,76.7,84.3,76.7z"/>
	<path class="st22" d="M69,82.9L69,82.9c0.2-0.1,0.3-0.2,0.5-0.3c0.1-0.2,0.2-0.5,0.4-0.7C69.6,82.3,69.3,82.6,69,82.9z"/>
	<path class="st22" d="M96.7,76c-2.4-0.1-4.8,0.1-7.2,0.4c3-0.2,6-0.2,9-0.2C97.9,76,97.3,76,96.7,76z"/>
	<path class="st23" d="M68.7,86.3c0.1-0.1,0.3-0.3,0.6-0.3c0.9,0.4,1.5,1.1,1.6,2.1c0.1,0.7,0.4,1.8-0.3,2.1
		c-1.1,0.4-1.2-0.8-1.5-1.5c-0.5,0.2-0.4,0.6-0.5,1c0.4,0.3,0.5,0.7,0.7,1.1c0.2,0.8,0.5,1.5,1.5,1.1c0.8-0.3,1.5-0.8,1.7-1.7
		c0.3-1.4-1.7-5.5-3.1-6.6c0,0.1,0,0.2-0.1,0.3C68.8,84.7,68.7,85.5,68.7,86.3z"/>
	<path class="st23" d="M69.2,83.9c0-0.1,0-0.2,0.1-0.3c-0.1-0.1-0.1-0.1-0.2-0.2c-2,0.9-0.7,2.6-1,4c0.4-0.2,0.4-0.8,0.6-1.2
		C68.7,85.5,68.8,84.7,69.2,83.9z"/>
	<path class="st23" d="M72.3,90.3c-0.2,0.9-0.8,1.4-1.7,1.7c-1,0.3-1.3-0.4-1.5-1.1c-0.1-0.4-0.3-0.8-0.7-1.1c0,0.1,0,0.1,0,0.2
		c0.4,1.1-0.5,2.7,1,3.2c1,0.3,2.1-0.6,3-1.3c0.9-0.7,1.1-1.5,0.5-2.6c-0.6-1.1-0.9-2.5-1-3.7c-0.1-2-0.9-2.5-2.5-1.9
		c0,0.1,0,0.2-0.1,0.3C70.7,84.8,72.6,88.9,72.3,90.3z"/>
	<path class="st23" d="M69.3,83.7c0-0.1,0.1-0.2,0.1-0.3c-0.1,0-0.2,0.1-0.3,0.1C69.1,83.5,69.2,83.6,69.3,83.7z"/>
	<path class="st24" d="M67.4,89.3c0,0-0.1,0-0.1,0c-0.8-1.1-0.7-2.4-0.7-3.7c-0.3,1.7-0.2,3.4,0.7,5.1c0.1,0.2,0.2,0.5,0.2,0.8
		c0.1-0.3-0.1-0.6-0.1-0.9c0-0.1,0-0.1,0-0.2C67.3,90.1,67.3,89.7,67.4,89.3z"/>
	<path class="st24" d="M67.3,89.3c0,0,0.1,0,0.1,0c0,0,0-0.1,0-0.1c-0.3-1.6,0.5-3.4-0.6-4.9c-0.1,0.5-0.2,0.9-0.2,1.3
		C66.6,86.9,66.5,88.2,67.3,89.3z"/>
	<path class="st24" d="M67.5,90.7c0,0.3,0.1,0.6,0.1,0.9c-0.1-0.3-0.1-0.6-0.2-0.8c-0.9-1.7-1-3.4-0.7-5.1c0-0.3,0-0.6-0.1-0.9
		c-1.5,2.3-1.2,4.6,1.3,7.4c0-0.4,0-0.8,0-1.1c-0.1-0.2-0.2-0.3-0.3-0.5C67.5,90.5,67.5,90.6,67.5,90.7z"/>
	<path class="st24" d="M66.8,84.3c-0.1,0.2-0.2,0.3-0.3,0.5c0,0.3,0.1,0.6,0.1,0.9C66.6,85.2,66.7,84.7,66.8,84.3z"/>
	<path class="st25" d="M98.9,76.4c0,0,0-0.1,0-0.1c0,0,0,0,0,0c-0.1,0-0.2,0-0.3,0C98.7,76.3,98.8,76.3,98.9,76.4z"/>
	<path class="st25" d="M85.3,76.9c-0.3,0-0.6,0-0.9,0c0.1,0.2,0.1,0.3,0.1,0.5c0.1,0,0.1,0,0.2,0.1C84.8,77.2,85,77,85.3,76.9z"/>
	<path class="st25" d="M98.9,76.3c0,0,0,0.1,0,0.1c0.2,0.1,0.4,0.3,0.6,0.5c0-0.2,0-0.5,0-0.7C99.3,76.2,99.1,76.2,98.9,76.3
		C98.9,76.2,98.9,76.2,98.9,76.3z"/>
	<path class="st25" d="M84.4,76.9C84.4,76.9,84.4,76.9,84.4,76.9c-0.1,0.2-0.1,0.3-0.1,0.5c0.1,0,0.1,0,0.2,0
		C84.5,77.2,84.5,77.1,84.4,76.9z"/>
	<path class="st25" d="M85.3,76.9c-0.3,0.2-0.5,0.4-0.6,0.6c0.1,0,0.1,0,0.2,0.1c4.7-0.5,9.4-0.7,14.1-0.6c0-0.2-0.1-0.3-0.1-0.5
		c-0.1-0.1-0.2-0.1-0.3-0.1C94.2,76.5,89.8,77,85.3,76.9z"/>
	<path class="st25" d="M99,76.9c0.2,0,0.4,0,0.5,0c-0.2-0.2-0.4-0.4-0.6-0.5C98.9,76.6,99,76.7,99,76.9z"/>
	<path class="st25" d="M98.9,76.2C98.9,76.2,98.9,76.2,98.9,76.2c-0.1,0-0.3,0-0.4,0c0,0,0.1,0,0.1,0C98.7,76.2,98.8,76.2,98.9,76.2
		z"/>
	<path class="st25" d="M85.3,76.9c1.4-0.1,2.8-0.3,4.2-0.5c-1.7,0.1-3.4,0.2-5.1,0.4c0,0,0,0,0,0C84.7,76.9,85,76.9,85.3,76.9
		C85.3,76.9,85.3,76.9,85.3,76.9z"/>
	<path class="st25" d="M98.9,76.2c0.2,0,0.4,0,0.7,0C99.3,76.2,99.1,76.2,98.9,76.2C98.9,76.2,98.9,76.2,98.9,76.2z"/>
	<path class="st25" d="M84.4,76.9C84.4,76.9,84.4,76.9,84.4,76.9C84.4,76.9,84.4,76.9,84.4,76.9C84.4,76.9,84.4,76.9,84.4,76.9z"/>
	<path class="st25" d="M85.3,76.9c4.4,0.1,8.9-0.4,13.3-0.6c0,0-0.1,0-0.1,0c-3,0-6,0.1-9,0.2C88.1,76.6,86.7,76.8,85.3,76.9
		C85.3,76.9,85.3,76.9,85.3,76.9z"/>
	<path class="st26" d="M111.9,91.3c-0.6,0.5-1.2,1-1.8,1.5C110.8,92.5,111.3,91.9,111.9,91.3z"/>
	<path class="st26" d="M113.5,90.1c0-0.2,0-0.3,0-0.5c-0.3,0.3-0.5,0.6-0.8,0.9C113,90.3,113.2,90.2,113.5,90.1z"/>
	<path class="st26" d="M113.5,90.1c0.2-0.1,0.4-0.1,0.7-0.2c0-0.4,0-0.9,0-1.3c-0.2,0.4-0.4,0.7-0.7,1
		C113.5,89.7,113.5,89.9,113.5,90.1z"/>
	<path class="st26" d="M113.5,90.1c-0.3,0.1-0.5,0.3-0.8,0.4c-0.3,0.3-0.6,0.5-0.9,0.8c-0.6,0.6-1.1,1.2-1.8,1.5
		c0.6-0.5,1.2-1,1.8-1.5c0.3-0.3,0.6-0.5,0.9-0.8c0.3-0.3,0.6-0.6,0.8-0.9c0-0.2,0-0.3,0.1-0.5c-1.8,1.6-3.7,3.2-5.5,4.8
		c2.3-0.5,3.8-2,5.4-3.4c0-0.1,0-0.2,0-0.3C113.5,90.1,113.5,90.1,113.5,90.1z"/>
	<path class="st26" d="M113.5,90.2c0,0.1,0,0.2,0,0.3c0.2-0.2,0.5-0.4,0.7-0.6c-0.2,0-0.5,0.1-0.7,0.2
		C113.5,90.1,113.5,90.1,113.5,90.2z"/>
	<path class="st26" d="M113.6,89.6c0.2-0.3,0.5-0.6,0.7-1c-0.2,0.2-0.4,0.3-0.6,0.5C113.6,89.3,113.6,89.4,113.6,89.6z"/>
	<path class="st27" d="M107.8,78.7c0.2-0.1,0.4-0.3,0.6-0.4C108.2,78.4,108,78.5,107.8,78.7z"/>
	<path class="st27" d="M107.8,78.7c0.2-0.2,0.3-0.3,0.6-0.4c0.2-0.1,0.5-0.3,0.7-0.4c-2.4-0.2-2.9,0.3-2.1,2.3
		C107,79.5,107.3,79,107.8,78.7z"/>
	<path class="st27" d="M107.8,78.7c-0.3,0.3-0.5,0.8-0.6,1.3c0.5-0.6,1.1-1.2,1.6-1.8c-0.1,0-0.3,0.1-0.4,0.1
		C108.2,78.4,108,78.6,107.8,78.7z"/>
	<path class="st27" d="M107.8,78.7c-0.5,0.3-0.8,0.8-0.8,1.5c0.1-0.1,0.1-0.2,0.2-0.2C107.3,79.4,107.5,79,107.8,78.7z"/>
	<path class="st27" d="M108.8,78.2c0.1-0.1,0.2-0.2,0.3-0.3c-0.2,0.2-0.5,0.3-0.7,0.4C108.5,78.3,108.7,78.2,108.8,78.2z"/>
	<path class="st28" d="M68.7,88.5c0.1,0,0.2,0,0.3,0c0-0.4,0.1-0.9,0.1-1.3c-0.2,0.1-0.3,0.2-0.5,0.2c0,0.1,0,0.3,0,0.4
		c-0.2,0.6-0.2,1.4-1.1,1.4c0.2,0.2,0.2,0.5,0.2,0.8c0.1-0.2,0.3-0.4,0.7-0.4C68.1,89.2,68.2,88.8,68.7,88.5z"/>
	<path class="st28" d="M68.6,87.8c0-0.1,0-0.3,0-0.4c-0.2,0.1-0.4,0.1-0.6,0c-0.4,0.5,0.2,1.3-0.6,1.7c0,0,0.1,0.1,0.1,0.1
		C68.4,89.2,68.4,88.5,68.6,87.8z"/>
	<path class="st28" d="M67.7,90.1c0,0.3,0,0.6,0.2,0.9c0.1-0.4,0.1-0.9,0.6-1.1c0-0.1-0.1-0.1-0.1-0.2C68,89.7,67.8,89.8,67.7,90.1z
		"/>
	<path class="st28" d="M69,88.7c0,0,0-0.1,0-0.1c-0.1,0-0.2,0-0.3,0c-0.5,0.3-0.6,0.7-0.4,1.1c0,0,0.1,0,0.1,0c0,0,0,0,0,0
		C68.6,89.3,68.5,88.9,69,88.7z"/>
	<path class="st28" d="M69.2,86c-0.3,0-0.4,0.1-0.6,0.3c0,0.4,0,0.8,0,1.2c0.2-0.1,0.3-0.2,0.5-0.2C69.2,86.8,69.2,86.4,69.2,86z"/>
	<path class="st28" d="M68.6,87.4c0-0.4,0-0.8,0-1.2c-0.3,0.4-0.2,0.9-0.6,1.2C68.2,87.6,68.4,87.5,68.6,87.4z"/>
	<path class="st28" d="M68.5,89.7C68.4,89.7,68.4,89.7,68.5,89.7c-0.1,0.1-0.1,0.1,0,0.2C68.5,89.8,68.5,89.8,68.5,89.7
		C68.5,89.7,68.5,89.7,68.5,89.7z"/>
	<path class="st28" d="M67.4,89.3c-0.1,0.4-0.1,0.8,0.1,1.2c0-0.1,0.1-0.3,0.2-0.4C67.7,89.8,67.7,89.5,67.4,89.3
		C67.5,89.3,67.4,89.3,67.4,89.3z"/>
	<path class="st28" d="M67.5,89.3c0,0,0-0.1-0.1-0.1C67.4,89.2,67.4,89.2,67.5,89.3C67.4,89.3,67.5,89.3,67.5,89.3z"/>
	<path class="st28" d="M67.7,90.1c-0.1,0.1-0.1,0.3-0.2,0.4c0.1,0.2,0.2,0.3,0.3,0.5C67.6,90.7,67.7,90.4,67.7,90.1z"/>
	<path class="st22" d="M75.3,97.7C75.3,97.7,75.3,97.7,75.3,97.7C75.3,97.7,75.3,97.7,75.3,97.7L75.3,97.7z"/>
	<path class="st22" d="M91.5,117.3c-0.1,0-0.1,0-0.2,0c-2.5-0.8-3.9-2.5-4.1-5.2c-0.2-2.6-1.4-5.1-1.8-7.7c-0.7-4.2-0.5-4.5,3.3-6.3
		c1.7-0.8,3.1-1.7,4.1-3.3c2-3.2,0.4-6.8-3.3-7.6c-5-1-6.5-3.4-5.1-8.5c0.1-0.4,0.2-0.9,0.4-1.2c-0.1,0-0.2,0-0.2-0.1
		c-2.1,1.3-2.1,3-1.5,5.2c1.2,4.5-0.1,7.3-4.1,8.1c-3.2,0.6-5.6,2.2-8.6,4.2c1.8-0.7,3-1.4,4.4-1c0.9,0.3,1.8,0.8,2,1.8
		c0.3,1,0,1.9-1.2,2.1c0,0-0.1-0.1-0.1-0.1c0,0,0,0-0.1,0c0,0,0,0.1,0,0.1c0.1,1.5-1.2,1.7-2.2,1.9c-1.4,0.3-1.4,1-0.9,2
		c2.7,5.8,6,11.3,10.6,15.8c1.4,1.3,2.9,1.6,4.7,1c1.1-0.4,2.2-1,3.4-0.7c0.1,0,0.1,0,0.2-0.1C91.2,117.6,91.3,117.5,91.5,117.3z
		 M73.1,103.5c3,0.2,5.2-1.6,7.6-3.1C79.2,103.2,76.5,104.3,73.1,103.5z M81.7,96.4c-2.2-1.9-2.2-5.4,0.4-6.4
		c1.5-0.5,2.8-2.1,4.5-1.3c2.8-0.5,4.1,1.4,4.8,3.2c0.6,1.6-0.9,2.9-2.4,3.7C86.7,96.9,84.5,98.8,81.7,96.4z"/>
	<path class="st22" d="M76.7,95.8c-0.3-1-1.1-1.5-2-1.8c-1.4-0.4-2.6,0.2-4.4,1c3-2.1,5.4-3.6,8.6-4.2c4-0.8,5.3-3.6,4.1-8.1
		c-0.6-2.2-0.6-3.9,1.5-5.2c0,0-0.1,0-0.1-0.1c-2.6,0.3-3.5,1.5-2.3,4c0.5,1,0.5,2.2,0.6,3.3c0.3,2.6-0.6,4.7-3.2,5.2
		c-3.2,0.6-5.9,2-8.7,3.6c-1.8,1-1.6,1.6-0.8,2.9c1-1.1,2.3-1.8,3.7-1.9c0.9-0.1,2.2,0,2.7,1.1c0.4,0.9,0.2,1.8-0.9,2.1
		c0,0,0.1,0.1,0.1,0.1C76.7,97.6,77,96.8,76.7,95.8z"/>
	<path class="st22" d="M87.5,118.5c-1.8,0.6-3.3,0.4-4.7-1c-4.6-4.5-7.9-10-10.6-15.8c-0.5-1-0.5-1.7,0.9-2c1-0.2,2.2-0.4,2.2-1.9
		c-0.6,1.4-2,1.4-3,1.4c-1.7-0.1-1.6,0.5-1.1,1.7c2.5,6.2,6,11.8,10.6,16.8c1.7,1.8,3.5,2.3,5.8,1.4c1.1-0.4,2.1-0.9,3.2-1.3
		C89.6,117.5,88.5,118.1,87.5,118.5z"/>
	<path class="st22" d="M87.7,110.8c-0.1-1.4-0.5-2.9-1.1-4.3c-1.9-4.5-1.3-6.2,3.2-8.1c2.9-1.2,5.1-4.5,4.7-6.9
		c-0.6-3.4-2.2-4.8-6.4-5.1c-1.9-0.2-3.1-0.7-3.3-3.2c-0.1-1.9,0.6-3.8,0.1-5.7c-0.1,0-0.2,0-0.2,0c-0.2,0.4-0.3,0.8-0.4,1.2
		c-1.3,5.1,0.1,7.4,5.1,8.5c3.7,0.8,5.3,4.3,3.3,7.6c-1,1.6-2.4,2.6-4.1,3.3c-3.8,1.8-4,2.1-3.3,6.3c0.4,2.6,1.6,5,1.8,7.7
		c0.2,2.7,1.6,4.3,4.1,5.2c0.1,0,0.2,0,0.2,0c0.1-0.1,0.2-0.2,0.4-0.3C89,115.9,87.8,113.7,87.7,110.8z"/>
	<path class="st22" d="M84.5,77.4C84.5,77.4,84.5,77.4,84.5,77.4C84.5,77.4,84.5,77.4,84.5,77.4c0,0.1,0.1,0.1,0.2,0.1
		c0,0,0,0,0-0.1C84.6,77.5,84.6,77.4,84.5,77.4z"/>
	<path class="st22" d="M84.5,77.4C84.5,77.4,84.5,77.4,84.5,77.4c-0.1,0-0.1,0-0.2-0.1C84.4,77.4,84.4,77.4,84.5,77.4
		C84.5,77.4,84.5,77.4,84.5,77.4z"/>
	<path class="st22" d="M84.7,77.5C84.7,77.5,84.7,77.5,84.7,77.5c0,0.1,0.1,0.1,0.2,0.1C84.8,77.5,84.8,77.5,84.7,77.5z"/>
	<path class="st29" d="M99.2,117.2c1.8-2.7,3.5-5.4,3.7-8.8c-3.4,3.9-6.9,7.6-11.7,10c0,0.1,0,0.1,0,0.2c-1.4,1.1-1.5,2.3-0.5,3.7
		c0.5,0.7,0.8,1.4,1.1,2.2C94.2,121.9,97.3,120.1,99.2,117.2z"/>
	<path class="st29" d="M90.8,122.2c-1-1.4-0.9-2.6,0.5-3.7c0-0.1,0-0.1,0-0.2c-0.1,0-0.1,0.1-0.2,0.1c-2.1,0.6-2.1,1.9-1.2,3.5
		c0.5,1,1.1,1.9,1.6,2.9c0.1-0.2,0.3-0.3,0.4-0.5C91.6,123.7,91.3,122.9,90.8,122.2z"/>
	<path class="st29" d="M95.9,121.7c3.9-3.8,7.8-7.8,7.5-13.9c-0.2,0.2-0.4,0.4-0.5,0.6c-0.2,3.3-1.9,6.1-3.7,8.8
		c-2,2.9-5,4.7-7.3,7.2c0,0.1,0.1,0.2,0.1,0.3c0,0,0,0,0,0.1C93.8,124.3,94.8,122.8,95.9,121.7z"/>
	<path class="st29" d="M92.1,124.8C92.1,124.7,92.1,124.7,92.1,124.8c-0.1-0.2-0.1-0.3-0.2-0.3c-0.1,0.2-0.3,0.3-0.4,0.5v0
		C91.7,124.8,91.9,124.8,92.1,124.8z"/>
	<path class="st30" d="M76.5,89.8c2.9,0,5.5-1.9,5.3-4.3c-0.1-2.1-0.8-4.2-1.2-6.3c-0.1-0.6-0.5-0.8-1.2-0.8
		c-5.3,0.1-8.2,4.4-6.1,9.2C73.9,89.1,74.9,89.9,76.5,89.8z M76.4,83c1.6,0.3,1.5,1.9,1.7,3.2c0.1,0.6,0.2,1.6-0.8,1.3
		c-1.4-0.4-1.3-1.8-1.5-3C75.8,83.9,75.5,82.8,76.4,83z"/>
	<path class="st31" d="M92.3,117.3c-0.2,0-0.4,0-0.6,0c-0.1,0.3-0.3,0.4-0.7,0.4c0,0.1,0,0.1,0,0.2c0.1,0.1,0.2,0.3,0.2,0.4
		C91.6,117.9,91.9,117.6,92.3,117.3z"/>
	<path class="st31" d="M104,105.7c0.5-0.9,1.1-1.8,1.5-3C105.1,103.8,104.6,104.8,104,105.7z"/>
	<path class="st31" d="M102.6,108c0.1-0.1,0.2-0.1,0.4-0.1c0.1-0.5,0.3-0.9,0.6-1.4C103.3,107,103,107.5,102.6,108z"/>
	<path class="st31" d="M91,117.9c0,0.2,0,0.4,0.1,0.6c0-0.1,0.1-0.1,0.2-0.2C91.2,118.1,91.1,118,91,117.9z"/>
	<path class="st31" d="M101.3,109.4c0.3-0.5,0.7-1.1,1.3-1.4c0.3-0.5,0.7-1,1-1.5c0.1-0.2,0.3-0.5,0.4-0.7c0.5-0.9,1.1-1.9,1.5-3
		c-0.4,1.2-1,2.1-1.5,3c-0.1,0.2-0.3,0.5-0.4,0.7c-0.2,0.4-0.4,0.9-0.6,1.4c0.1,0,0.3-0.1,0.5-0.1c1-2.1,2.7-3.9,2.7-7.3
		c-3.4,7.5-8,12.8-14.4,16.5c0,0.1-0.1,0.3-0.1,0.4c0.2,0,0.4,0,0.6,0c1.1-0.9,2.4-1.5,3.5-2.4C97.8,113.2,99.8,111.6,101.3,109.4z"
		/>
	<path class="st31" d="M91,117.7c0.4,0,0.6-0.1,0.7-0.4c-0.1,0-0.2,0-0.3,0C91.3,117.5,91.2,117.6,91,117.7z"/>
	<path class="st31" d="M91.5,117.3c0.1,0,0.2,0,0.3,0c0.1-0.1,0.1-0.2,0.1-0.4C91.7,117.1,91.6,117.2,91.5,117.3z"/>
	<path class="st31" d="M102.9,108.4c0-0.1,0-0.3,0-0.4c0-0.1,0-0.1,0.1-0.2c-0.1,0-0.3,0.1-0.4,0.1c-2.3,3.3-5,6.1-8.3,8.4
		c-0.6,0.4-1.3,0.9-2,1c-0.4,0.3-0.7,0.6-1,1c0,0,0,0.1,0,0.1C96,116,99.5,112.3,102.9,108.4z"/>
	<path class="st31" d="M91.2,118.3c-0.1,0.1-0.1,0.1-0.2,0.2C91.2,118.4,91.2,118.4,91.2,118.3C91.3,118.3,91.3,118.3,91.2,118.3z"
		/>
	<path class="st31" d="M102.6,108c-0.6,0.3-1,0.9-1.3,1.4c-1.5,2.2-3.5,3.9-5.5,5.5c-1.1,0.9-2.4,1.5-3.5,2.4c0.8-0.1,1.4-0.6,2-1
		C97.6,114,100.4,111.3,102.6,108z"/>
	<path class="st31" d="M103,108c0,0.1,0,0.3,0,0.4c0.2-0.2,0.4-0.4,0.5-0.6c-0.2,0-0.3,0-0.5,0.1C103,107.9,103,107.9,103,108z"/>
	<path class="st32" d="M75.2,97.5c-0.8-0.9-1.6-1.9-3-0.5c0.9,1.1,2.3-0.2,3.1,0.7c0,0,0,0,0,0c0,0,0,0,0,0
		C75.2,97.7,75.2,97.6,75.2,97.5z"/>
	<path class="st32" d="M75.3,97.7C75.3,97.7,75.3,97.7,75.3,97.7C75.3,97.7,75.3,97.7,75.3,97.7C75.3,97.7,75.3,97.7,75.3,97.7z"/>
	<path class="st32" d="M72.2,97c1.5-1.4,2.2-0.5,3,0.5c-0.1-0.7,1.1-1.6-0.3-2c-1.4-0.4-2.6,0-3.6,1c-0.4,0.4-0.8,1-0.4,1.5
		c0.9,1,2,0.4,3.1,0.1c0.4-0.1,0.8-0.2,1.3-0.2c0,0,0,0,0,0C74.4,96.8,73.1,98.1,72.2,97z"/>
	<path class="st2" d="M95.4,139.5c0,0.1,0,0.1-0.1,0.2c0,0.2,0,0.4,0,0.7c0.5-1.1,1-2.1,1.1-3.3C95.9,137.7,95.9,138.8,95.4,139.5z"
		/>
	<path class="st2" d="M95.3,139.7c0-0.1,0-0.1,0.1-0.2c-0.2,0.2-0.4,0.4-0.8,0.5c0,0,0,0,0,0c0.2,0.4,0.3,0.7,0.5,1.1c0,0,0,0,0,0
		c0.1-0.2,0.2-0.5,0.3-0.7C95.3,140.2,95.3,139.9,95.3,139.7z"/>
	<path class="st2" d="M97.3,136.8c-0.4,0-0.6,0.2-0.8,0.4c-0.2,1.2-0.7,2.2-1.1,3.3c0,0.2,0,0.3,0,0.5
		C96.6,139.9,96.8,138.2,97.3,136.8z"/>
	<path class="st2" d="M95.3,140.4c-0.1,0.2-0.2,0.5-0.3,0.7c0.1-0.1,0.2-0.1,0.3-0.2C95.3,140.7,95.3,140.6,95.3,140.4z"/>
	<path class="st33" d="M96.5,136.4c0-0.3,0-0.6,0.2-0.9c-2,0.9-1.4,3-2.2,4.5c0,0,0,0,0,0c0.7-0.8,1-1.8,1.3-2.8
		C96,136.9,96.2,136.5,96.5,136.4z"/>
	<path class="st33" d="M97.3,136.8c-0.1-0.3-0.3-0.6-0.4-1c-0.1,0.2-0.2,0.4-0.4,0.6C96.7,136.4,97,136.5,97.3,136.8z"/>
	<path class="st33" d="M96.5,136.4c0.1-0.2,0.2-0.4,0.4-0.6c0-0.1-0.1-0.2-0.1-0.3C96.5,135.8,96.5,136.1,96.5,136.4
		C96.5,136.4,96.5,136.4,96.5,136.4z"/>
	<path class="st33" d="M96.5,136.9c0-0.2,0-0.3,0-0.5c-0.5,1-0.9,2-1.1,3.1c0.5-0.7,0.5-1.8,1.1-2.4C96.5,137.1,96.5,137,96.5,136.9
		z"/>
	<path class="st33" d="M96.5,136.5C96.5,136.5,96.5,136.4,96.5,136.5c-0.3,0.1-0.5,0.4-0.6,0.8c-0.4,1-0.7,1.9-1.3,2.8
		c0.4-0.1,0.7-0.3,0.8-0.5C95.6,138.4,96,137.4,96.5,136.5z"/>
	<path class="st33" d="M96.5,137.1c0.2-0.2,0.5-0.3,0.8-0.4c-0.3-0.3-0.6-0.4-0.8-0.3c0,0,0,0,0,0c0,0.2,0,0.3,0,0.5
		C96.5,137,96.5,137.1,96.5,137.1z"/>
	<path class="st33" d="M96.5,136.4C96.5,136.4,96.5,136.5,96.5,136.4C96.5,136.5,96.5,136.4,96.5,136.4
		C96.5,136.4,96.5,136.4,96.5,136.4z"/>
	<path class="st34" d="M108.2,81.7c1.2,1.3,1.6,2.7,1.7,4.5c0,1.2,0,2.6,1.1,3.5c0.7-2.4,2.4-3.9,4.5-5c-0.1-2,0.2-4-0.8-5.8
		c-1.8,0.2-3.3,0.9-4.6,2.2C109.6,81.6,109,82.1,108.2,81.7z"/>
	<path class="st35" d="M114.7,78.9c-3.2-1.5-4.7,1.3-6.6,2.8c1.4-0.5,2.4-1.7,3.7-2.4C112.8,78.8,113.7,78.6,114.7,78.9z"/>
	<polygon class="st35" points="108.2,81.7 108.2,81.7 108.2,81.7 	"/>
	<path class="st35" d="M110.1,81.1c1.3-1.3,2.9-2,4.6-2.2c-1-0.3-2-0.1-2.9,0.4c-1.3,0.7-2.2,1.9-3.7,2.4c0,0,0,0,0,0
		C109,82.1,109.6,81.6,110.1,81.1z"/>
	<path class="st36" d="M115.5,84.7c-1.5,1.7-3.3,3.1-4.5,5C112.8,88.3,114.6,86.9,115.5,84.7z"/>
	<path class="st36" d="M111,89.7c1.3-1.9,3-3.3,4.5-5C113.4,85.8,111.7,87.3,111,89.7z"/>
	<path class="st37" d="M134.9,123.5c0.1,1.4,0.7,1.9,1.3,2.5c5.5,6.3,10.6,12.9,15.3,19.8c0.3,0.5,0.5,0.9,1.2,1
		c5.4,0.1,9.5,2.9,13.3,6.4C158.1,140.8,148.4,130.4,134.9,123.5z"/>
	<path class="st38" d="M69.9,88.5c0.2-0.4,0-0.8-0.3-1.1c0,0.4-0.1,0.8-0.5,1.2C69.4,88.7,69.7,88.9,69.9,88.5z"/>
	<path class="st38" d="M69.9,88.5c-0.2,0.4-0.5,0.2-0.8,0.1c0,0-0.1,0.1-0.1,0.1c0.4,0.7,0.4,2,1.5,1.5c0.7-0.3,0.3-1.3,0.3-2.1
		c-0.1-1-0.7-1.7-1.6-2.1c0.2,0.5,0.4,0.9,0.4,1.4C70,87.7,70.1,88.1,69.9,88.5z"/>
	<path class="st38" d="M69.6,87.4c-0.1-0.1-0.2-0.2-0.3-0.2c-0.1,0-0.1,0-0.1,0c0,0.4-0.1,0.9-0.1,1.3c0,0,0.1,0,0.1,0
		C69.5,88.2,69.6,87.8,69.6,87.4z"/>
	<path class="st38" d="M69.3,87.2c0.1,0.1,0.2,0.1,0.3,0.2c0-0.4-0.2-0.9-0.4-1.4c0,0.4-0.1,0.8-0.1,1.2
		C69.2,87.2,69.2,87.2,69.3,87.2z"/>
	<path class="st38" d="M69,88.5c0,0,0,0.1,0,0.1C69.1,88.7,69.1,88.6,69,88.5C69.1,88.6,69.1,88.6,69,88.5z"/>
	<path class="st39" d="M91.4,92c-0.7-1.9-2-3.7-4.8-3.2c-1.7-0.8-3,0.8-4.5,1.3c-2.7,0.9-2.7,4.5-0.4,6.4c2.8,2.4,5,0.4,7.3-0.8
		C90.5,94.9,92,93.6,91.4,92z"/>
	<path class="st40" d="M80.7,100.4c-2.5,1.6-4.7,3.3-7.6,3.1C76.5,104.3,79.2,103.2,80.7,100.4z"/>
	<path class="st41" d="M77.2,87.5c1,0.3,0.9-0.8,0.8-1.3c-0.2-1.2-0.1-2.8-1.7-3.2c-0.9-0.2-0.6,0.9-0.7,1.5
		C75.9,85.7,75.9,87.1,77.2,87.5z"/>
	<path class="st42" d="M201.2,249.6h-1.7c0.1,0,0.1,0,0.2,0C200.2,249.8,200.7,249.7,201.2,249.6z"/>
</g>
</svg>
